<?xml version="1.0" standalone="no"?>
<!DOCTYPE svg PUBLIC "-//W3C//DTD SVG 1.1//EN" "http://www.w3.org/Graphics/SVG/1.1/DTD/svg11.dtd" >
<svg xmlns="http://www.w3.org/2000/svg">
  <metadata>Created by iconfont</metadata>
  <defs>
  <font id="iconfont" horiz-adv-x="1024">
    <font-face
      font-family="iconfont"
      font-weight="400"
      font-stretch="normal"
      units-per-em="1024"
      ascent="896"
      descent="-128"
    />
      <missing-glyph />
      
      <glyph glyph-name="daiqueren" unicode="&#59077;" d="M533.0432 341.384533L518.826667 688.64a6.8096 6.8096 0 0 1-6.7072 6.468267h-42.410667a6.792533 6.792533 0 0 1-6.724267-6.468267l-15.803733-386.577067a12.288 12.288 0 0 1 6.109867-11.264c1.262933-2.065067 3.1232-3.7888 5.461333-4.9152l255.112533-121.514666a7.133867 7.133867 0 0 1 9.096534 2.901333l15.598933 27.016533a7.0656 7.0656 0 0 1-2.048 9.2672l-203.485867 137.847467zM1024 377.685333C1024 101.205333 794.7776-128 505.685333-128 229.205333-128 0 101.2224 0 377.685333 0 666.760533 229.2224 896 505.685333 896 794.760533 896 1024 666.7776 1024 377.685333z"  horiz-adv-x="1024" />
      
      <glyph glyph-name="yiqueren" unicode="&#59078;" d="M512 896C229.12 896 0 666.88 0 384s229.12-512 512-512 512 229.12 512 512S794.88 896 512 896z m344.576-340.48L457.301333 156.450133c-3.874133-3.805867-9.028267-6.3488-14.165333-6.3488-2.577067 0-5.1712 0-7.748267 2.542934l-1.28 1.262933-227.976533 239.445333c-5.154133 5.051733-5.154133 12.663467 0 16.452267l33.501867 32.938667c5.137067 5.0688 11.588267 5.0688 16.725333 0l190.634667-139.349334 360.618666 298.973867c5.1712 3.805867 12.885333 3.805867 16.7424 0l33.501867-32.938667c2.56-2.542933 2.56-10.1376-1.297067-13.943466h0.017067z"  horiz-adv-x="1024" />
      
      <glyph glyph-name="daishenhe02" unicode="&#59075;" d="M1024 377.7024C1024 101.2224 794.7776-128 505.7024-128 229.2224-128 0 101.2224 0 377.7024 0 666.7776 229.2224 896 505.7024 896 794.7776 896 1024 666.7776 1024 377.7024zM341.3504 657.0496v-143.7184L469.3504 384l-128-129.3312v-143.7184h341.2992v143.7184L554.6496 384l128 129.3312V657.0496H341.3504z m284.416-416.768v-71.8848H398.2336v71.8848L512 355.2768l113.7664-114.9952zM512 412.7232L398.2336 527.7184V599.6032h227.5328v-71.8848L512 412.7232z"  horiz-adv-x="1024" />
      
      <glyph glyph-name="youjiantou" unicode="&#59119;" d="M341.44 756.992a37.696 37.696 0 0 1 0-53.312l319.744-319.616-319.744-319.744a37.696 37.696 0 0 1 53.312-53.312l319.68 319.808 8 8a64 64 0 0 1 0 90.496l-8 8-319.68 319.68a37.696 37.696 0 0 1-53.312 0z"  horiz-adv-x="1024" />
      
      <glyph glyph-name="a-tianjia" unicode="&#59016;" d="M916.48 425.179429H556.690286V784.822857a44.763429 44.763429 0 0 1-89.526857 0v-359.643428H107.593143a44.763429 44.763429 0 0 1 0-89.526858h359.643428v-359.643428a44.763429 44.763429 0 0 1 89.526858 0V335.652571h359.643428a44.763429 44.763429 0 0 1 0 89.526858z"  horiz-adv-x="1024" />
      
      <glyph glyph-name="riqi" unicode="&#59014;" d="M880 712h-168v64A8 8 0 0 1 704 784h-56a8 8 0 0 1-8-8v-64H384v64a8 8 0 0 1-8 8H320a8 8 0 0 1-8-8v-64H144a32 32 0 0 1-32-32V16a32 32 0 0 1 32-32h736a32 32 0 0 1 32 32V680a32 32 0 0 1-32 32z m-40-656H184V436.032h656v-380.032z m-656 448V640h128v-48c0-4.416 3.584-8 8-8h56A8 8 0 0 1 384 592V640h256v-48c0-4.416 3.584-8 8-8H704a8 8 0 0 1 8 8V640h128v-136H184z"  horiz-adv-x="1024" />
      
      <glyph glyph-name="guanbi2" unicode="&#59015;" d="M602.848793 384.321344l399.334051-399.405144a65.193043 65.193043 0 1 0-92.137606-92.137606L510.640094 292.041551l-399.334051-399.334051A65.193043 65.193043 0 0 0 19.097344-15.0838l399.405144 399.405144L19.097344 783.655395A65.193043 65.193043 0 0 0 111.306043 875.864094l399.334051-399.405144L910.045238 875.864094a65.193043 65.193043 0 1 0 92.137606-92.208699L602.919887 384.321344z"  horiz-adv-x="1025" />
      
      <glyph glyph-name="fuzhi" unicode="&#59011;" d="M844.373333-128H105.557333C45.738667-128 0-86.869333 0-33.109333V757.248h738.816c59.818667 0 105.557333-41.045333 105.557333-94.805333V-128zM68.096 697.770667v-728.064c0-18.944 13.994667-31.573333 35.072-31.573334h666.282667V666.026667c0 19.029333-13.994667 31.658667-34.986667 31.658666H68.010667zM631.210667 463.957333H210.432a34.645333 34.645333 0 0 0-35.072 33.962667c0 17.066667 13.994667 34.048 34.986667 34.048h420.864c17.578667 0 35.072-13.653333 35.072-34.048 0-17.066667-17.493333-33.962667-34.986667-33.962667z m0-170.154666H210.432a34.645333 34.645333 0 0 0-35.072 34.048c0 17.066667 13.994667 33.962667 34.986667 33.962666h420.864c17.578667 0 35.072-13.568 35.072-33.962666 0-17.066667-17.493333-34.048-34.986667-34.048zM918.784 896h-701.44c-20.992 0-34.986667-13.653333-34.986667-34.048 0-20.394667 13.994667-33.962667 34.986667-33.962667h701.44c21.077333 0 35.072-13.653333 35.072-34.133333v-782.506667h-42.069333v-68.010666H1024V793.941333C1024 851.797333 974.933333 896 918.784 896zM876.714667-22.613333c0-18.773333 15.701333-34.048 34.986666-34.048a34.56 34.56 0 0 1 35.157334 34.133333 34.56 34.56 0 0 1-35.072 33.962667 34.56 34.56 0 0 1-35.072-34.048z"  horiz-adv-x="1024" />
      
      <glyph glyph-name="shaixuan2" unicode="&#59012;" d="M256 682.666667m42.666667 0l597.333333 0q42.666667 0 42.666667-42.666667l0 0q0-42.666667-42.666667-42.666667l-597.333333 0q-42.666667 0-42.666667 42.666667l0 0q0 42.666667 42.666667 42.666667ZM128 640m-42.666667 0a42.666667 42.666667 0 1 1 85.333334 0 42.666667 42.666667 0 1 1-85.333334 0ZM256 426.666667m42.666667 0l597.333333 0q42.666667 0 42.666667-42.666667l0 0q0-42.666667-42.666667-42.666667l-597.333333 0q-42.666667 0-42.666667 42.666667l0 0q0 42.666667 42.666667 42.666667ZM128 384m-42.666667 0a42.666667 42.666667 0 1 1 85.333334 0 42.666667 42.666667 0 1 1-85.333334 0ZM256 170.666667m42.666667 0l597.333333 0q42.666667 0 42.666667-42.666667l0 0q0-42.666667-42.666667-42.666667l-597.333333 0q-42.666667 0-42.666667 42.666667l0 0q0 42.666667 42.666667 42.666667ZM128 128m-42.666667 0a42.666667 42.666667 0 1 1 85.333334 0 42.666667 42.666667 0 1 1-85.333334 0Z"  horiz-adv-x="1024" />
      
      <glyph glyph-name="shuoming" unicode="&#59013;" d="M512 896c282.3168 0 512-229.6832 512-512s-229.6832-512-512-512-512 229.6832-512 512 229.6832 512 512 512z m1.2288-394.4448a64 64 0 0 1-64-64v-329.3184a64 64 0 1 1 128 0V437.5552a64 64 0 0 1-64 64zM512 725.2992a85.2992 85.2992 0 1 1 0-170.5984 85.2992 85.2992 0 0 1 0 170.5984z"  horiz-adv-x="1024" />
      
      <glyph glyph-name="tishi1" unicode="&#59010;" d="M512 896a512 512 0 1 0 0-1024 512 512 0 0 0 0 1024z m0-73.142857a438.857143 438.857143 0 1 1 0-877.714286 438.857143 438.857143 0 0 1 0 877.714286z m3.260082-643.657143a45.473959 45.473959 0 1 0 0-91.03151 45.473959 45.473959 0 0 0 0 91.03151z m33.771102 500.63151c6.687347 0 11.870041-5.099102 11.702857-12.204408l-9.613061-430.748735a12.538776 12.538776 0 0 0-12.037225-12.204408h-47.647347a12.120816 12.120816 0 0 0-12.037224 12.204408L469.786122 667.627102a11.452082 11.452082 0 0 0 11.702858 12.204408h67.542204z"  horiz-adv-x="1024" />
      
      <glyph glyph-name="qiehuan" unicode="&#59107;" d="M966.912 486.4H56.917333c-23.04 0-43.690667 16.64-52.48 42.069333a78.506667 78.506667 0 0 0 12.202667 74.410667l227.584 273.066667c22.272 26.709333 58.282667 26.709333 80.384 0 22.186667-26.709333 22.272-69.973333 0-96.426667L194.218667 622.933333h772.864c31.488 0 56.917333-30.549333 56.917333-68.266666 0-37.802667-25.6-68.352-57.088-68.352z m-187.306667-594.432l227.584 273.066667a78.165333 78.165333 0 0 1 12.288 74.496c-8.789333 25.6-29.610667 42.069333-52.565333 42.069333H56.917333C25.429333 281.6 0 251.050667 0 213.333333c0-37.802667 25.429333-68.352 56.917333-68.352h772.864l-130.389333-156.501333a77.994667 77.994667 0 0 1 0-96.426667c11.093333-13.312 25.6-20.053333 40.277333-20.053333a51.882667 51.882667 0 0 1 39.936 19.968z"  horiz-adv-x="1024" />
      
      <glyph glyph-name="shaixuan1" unicode="&#59009;" d="M507.977143 338.212571c32.768 35.108571 52.882286 82.212571 52.882286 133.924572 0 108.178286-87.990857 196.169143-196.169143 196.169143S168.521143 580.315429 168.521143 472.137143c0-51.931429 20.333714-99.108571 53.321143-134.290286a288.036571 288.036571 0 0 1-58.221715-44.909714 283.355429 283.355429 0 0 1-83.529142-201.654857c0-46.226286 11.410286-78.994286 34.669714-100.132572 37.522286-33.865143 93.330286-28.086857 157.769143-21.504 29.622857 2.998857 60.196571 6.217143 92.525714 6.217143 32.329143 0 62.902857-3.072 92.525714-6.217143 25.234286-2.633143 49.078857-4.973714 71.094857-4.973714 34.304 0 63.926857 5.924571 86.674286 26.624 23.478857 21.138286 34.742857 53.833143 34.742857 100.132571 0 76.068571-29.696 147.675429-83.529143 201.581715a278.674286 278.674286 0 0 1-58.587428 45.202285zM364.690286 604.306286c72.923429 0 132.169143-59.318857 132.169143-132.169143s-59.245714-132.242286-132.169143-132.242286-132.169143 59.318857-132.169143 132.242286a132.388571 132.388571 0 0 0 132.169143 132.169143zM572.708571 38.765714c-16.384-14.774857-61.074286-10.166857-108.397714-5.412571-29.769143 2.998857-63.488 6.509714-99.035428 6.509714s-69.193143-3.510857-99.035429-6.509714c-47.323429-4.827429-92.013714-9.435429-108.397714 5.412571-8.923429 8.265143-13.531429 25.819429-13.531429 52.662857a221.622857 221.622857 0 0 0 135.68 203.922286c25.673143-12.434286 54.491429-19.309714 84.918857-19.309714 33.133714 0 64.292571 8.265143 91.721143 22.820571a40.813714 40.813714 0 0 0-3.584-4.388571 221.476571 221.476571 0 0 0 133.412572-202.898286c-0.146286-26.843429-4.754286-44.544-13.750858-52.809143z m286.061715 390.509715a288.694857 288.694857 0 0 1-58.806857 45.275428 195.657143 195.657143 0 0 1 40.813714 201.728l-0.073143 0.365714-0.804571 2.121143A196.608 196.608 0 0 1 658.285714 805.376a196.022857 196.022857 0 0 1-165.010285-87.405714 31.963429 31.963429 0 1 1 53.248-35.547429c5.12 7.606857 10.971429 14.701714 17.481142 21.065143a36.937143 36.937143 0 0 1 4.973715 3.584 132.022857 132.022857 0 0 0 219.721143-101.376A132.388571 132.388571 0 0 0 656.822857 476.891429a35.108571 35.108571 0 0 1-6.217143-0.585143 31.524571 31.524571 0 0 1-30.866285-25.234286l-0.073143-0.585143a31.670857 31.670857 0 0 1 29.622857-38.107428l7.533714-0.073143c30.72 0 59.684571 7.094857 85.577143 19.675428 78.409143-34.011429 135.972571-113.517714 135.972571-204.214857 0-26.697143-4.608-44.397714-13.604571-52.589714-16.384-14.774857-61.074286-10.166857-108.397714-5.412572a803.84 803.84 0 0 1-28.964572 2.56 31.890286 31.890286 0 0 1-0.292571-63.780571l22.674286-2.413714c25.234286-2.633143 49.078857-4.973714 71.094857-4.973715 34.304 0 63.926857 5.924571 86.674285 26.624 23.405714 21.065143 34.669714 53.833143 34.669715 100.132572a282.550857 282.550857 0 0 1-83.456 201.362286z"  horiz-adv-x="1024" />
      
      <glyph glyph-name="duoxuan" unicode="&#59008;" d="M426.666667 896h597.333333v-597.333333a426.666667 426.666667 0 0 0-426.666667-426.666667H0V469.333333a426.666667 426.666667 0 0 0 426.666667 426.666667zM807.424 579.84l0.426667-0.426667a40.021333 40.021333 0 0 0 0.426666-56.149333l-0.426666-0.426667-368.64-368.64a40.021333 40.021333 0 0 0-56.149334-0.512L214.869333 321.962667a40.021333 40.021333 0 0 0 56.064 57.002666l0.426667-0.426666 139.52-139.52 340.48 340.394666a40.021333 40.021333 0 0 0 56.064 0.426667z"  horiz-adv-x="1024" />
      
      <glyph glyph-name="fuxuankuang-moren" unicode="&#59006;" d="M832 832a128 128 0 0 0 128-128v-640a128 128 0 0 0-128-128H192a128 128 0 0 0-128 128V704a128 128 0 0 0 128 128h640z m0-64H192a64 64 0 0 1-63.552-56.512L128 704v-640a64 64 0 0 1 56.512-63.552L192 0h640a64 64 0 0 1 63.552 56.512L896 64V704a64 64 0 0 1-56.512 63.552L832 768z"  horiz-adv-x="1024" />
      
      <glyph glyph-name="fuxuankuang-yixuanzhong" unicode="&#59007;" d="M832 832a128 128 0 0 0 128-128v-640a128 128 0 0 0-128-128H192a128 128 0 0 0-128 128V704a128 128 0 0 0 128 128h640z m-13.44-260.992a21.376 21.376 0 0 1-26.24 0.96l-338.944-256.64a24.32 24.32 0 0 0-24.704-1.088L300.416 394.112a20.288 20.288 0 0 1-25.472-3.904l-14.784-17.472c-6.4-7.424-5.184-17.856 1.984-24.576l158.528-147.712c11.648-10.88 30.272-11.328 41.6-0.832l363.712 339.008c7.616 7.04 8.128 17.856 0.832 24.64z"  horiz-adv-x="1024" />
      
      <glyph glyph-name="gongmu" unicode="&#59004;" d="M716.8 230.4m-256 0a256 256 0 1 1 512 0 256 256 0 1 1-512 0ZM512-102.4C245.76-102.4 25.6 117.76 25.6 384S245.76 870.4 512 870.4s486.4-220.16 486.4-486.4-220.16-486.4-486.4-486.4z m0 921.6c-240.64 0-435.2-194.56-435.2-435.2s194.56-435.2 435.2-435.2 435.2 194.56 435.2 435.2-194.56 435.2-435.2 435.2zM511.3856 437.0432c-10.24-30.72-20.48-56.32-30.72-87.04s-20.48-51.2-30.72-76.8l-30.72-76.8c-15.36-25.6-25.6-46.08-35.84-71.68h266.24c-15.36 40.96-25.6 76.8-40.96 112.64-10.24 35.84-25.6 71.68-40.96 112.64h71.68c20.48-46.08 40.96-87.04 56.32-138.24 15.36-46.08 35.84-97.28 51.2-148.48h-476.16c35.84 66.56 66.56 133.12 92.16 194.56s51.2 122.88 71.68 179.2h76.8z m-276.48-66.56c15.36 20.48 30.72 46.08 46.08 66.56s30.72 46.08 40.96 66.56 25.6 40.96 35.84 61.44 20.48 40.96 25.6 56.32h81.92c-10.24-20.48-20.48-46.08-30.72-66.56-15.36-25.6-25.6-46.08-35.84-66.56-15.36-25.6-25.6-46.08-40.96-61.44s-20.48-40.96-35.84-56.32h-87.04z m465.92 0c-25.6 35.84-51.2 76.8-71.68 117.76-25.6 40.96-46.08 87.04-71.68 133.12h76.8c10.24-20.48 20.48-35.84 35.84-56.32 10.24-20.48 20.48-46.08 35.84-66.56s25.6-40.96 40.96-66.56 30.72-40.96 40.96-61.44h-87.04z"  horiz-adv-x="1024" />
      
      <glyph glyph-name="simu1" unicode="&#59005;" d="M716.8 230.4m-256 0a256 256 0 1 1 512 0 256 256 0 1 1-512 0ZM512-102.4C245.76-102.4 25.6 117.76 25.6 384S245.76 870.4 512 870.4s486.4-220.16 486.4-486.4-220.16-486.4-486.4-486.4z m0 921.6c-240.64 0-435.2-194.56-435.2-435.2s194.56-435.2 435.2-435.2 435.2 194.56 435.2 435.2-194.56 435.2-435.2 435.2zM455.68 166.2976c0 51.2-5.12 97.28-5.12 148.48 0 46.08-5.12 92.16-10.24 143.36h56.32c5.12-46.08 5.12-92.16 10.24-133.12s5.12-87.04 10.24-138.24c10.24 35.84 15.36 71.68 25.6 112.64 10.24 40.96 15.36 81.92 20.48 122.88s10.24 81.92 15.36 128c10.24 40.96 15.36 81.92 15.36 122.88h61.44c0-40.96-5.12-81.92-10.24-128 0-40.96-10.24-87.04-15.36-133.12s-15.36-87.04-20.48-128c-10.24-40.96-15.36-76.8-25.6-107.52H716.8c-5.12 20.48-5.12 40.96-10.24 66.56 0 20.48-5.12 46.08-10.24 71.68-5.12 20.48-5.12 46.08-10.24 66.56-5.12 25.6-10.24 46.08-15.36 66.56h61.44c5.12-25.6 10.24-51.2 15.36-81.92 5.12-30.72 10.24-56.32 15.36-87.04 5.12-30.72 10.24-56.32 15.36-87.04s5.12-56.32 10.24-76.8H496.64c0 10.24 5.12 15.36 5.12 25.6s5.12 15.36 5.12 25.6h-51.2z m-102.4 312.32H235.52v56.32h117.76v61.44l-102.4-5.12v56.32l266.24 15.36v-56.32l-102.4-5.12v-66.56h112.64v-56.32H414.72v-363.52H353.28v363.52z m-112.64-348.16c5.12 25.6 10.24 51.2 10.24 81.92s5.12 51.2 5.12 81.92 5.12 56.32 5.12 81.92 5.12 51.2 5.12 76.8h56.32c0-51.2-5.12-107.52-5.12-163.84s-10.24-107.52-15.36-163.84H240.64z"  horiz-adv-x="1024" />
      
      <glyph glyph-name="putong" unicode="&#59003;" d="M147.687469 840.648649h738.018018c50.738739 0 92.252252-41.513514 92.252253-92.252253v-738.018018c0-50.738739-41.513514-92.252252-92.252253-92.252252H147.687469c-50.738739 0-92.252252 41.513514-92.252252 92.252252V748.396396C55.435217 799.135135 96.948731 840.648649 147.687469 840.648649zM885.705487-95.711712H147.687469c-55.351351 0-101.477477 46.126126-101.477477 101.477478V748.396396C46.209992 803.747748 92.336118 849.873874 147.687469 849.873874h738.018018c55.351351 0 101.477477-46.126126 101.477478-101.477478v-738.018018c0-55.351351-46.126126-106.09009-101.477478-106.09009zM147.687469 831.423423C101.561343 831.423423 64.660442 794.522523 64.660442 748.396396v-738.018018c0-46.126126 36.900901-83.027027 83.027027-83.027027h738.018018c46.126126 0 83.027027 36.900901 83.027027 83.027027V748.396396c0 46.126126-36.900901 83.027027-83.027027 83.027027H147.687469zM742.714496 356.324324l-27.675675-198.342342h-461.261262l27.675676 198.342342h461.261261zM401.381163 430.126126l13.837838 83.027027h-138.378379L286.065848 573.117117h87.639639L350.642424 610.018018H470.570352l13.837838-36.900901h92.252252l9.225225 18.450451-9.225225 18.45045h147.603604l-13.837838-36.900901H793.453235l-9.225225-59.963964h-138.378379l-9.225225-83.027027h152.216216l-9.225225-59.963964H239.939722l9.225225 59.963964h152.216216zM378.3181 282.522523h230.630631l4.612612 23.063063h-230.63063l-4.612613-23.063063z m276.756757 156.828828l23.063063 64.576577h87.639639l-23.063063-64.576577H655.074857z m-359.783784 0l-4.612613 64.576577H378.3181l4.612613-64.576577H295.291073z m304.432432-230.63063l4.612613 23.063063h-230.630631l-4.612612-23.063063h230.63063zM498.246028 430.126126h41.513513l13.837838 83.027027h-46.126126l-9.225225-83.027027z"  horiz-adv-x="1024" />
      
      <glyph glyph-name="morning" unicode="&#59002;" d="M734.500571 192a256 256 0 1 1 0 512 256 256 0 0 1 0-512zM683.446857 331.190857c81.993143 0 148.553143-68.315429 148.553143-149.942857a149.211429 149.211429 0 0 0-133.997714-147.675429H207.579429C123.611429 45.421714 64 118.857143 64 205.531429c0 81.115429 56.027429 148.992 131.657143 167.277714C220.379429 461.531429 304.274286 529.481143 400.822857 529.481143c116.662857 0 208.310857-97.499429 208.310857-212.845714 0-2.706286-0.438857-4.973714-0.438857-8.192 21.869714 12.726857 47.396571 22.747429 74.752 22.747428z"  horiz-adv-x="1024" />
      
      <glyph glyph-name="nansheng" unicode="&#59000;" d="M866.56 768h-213.504a33.28 33.28 0 0 1 0-66.56h123.84l-195.2-195.264a279.808 279.808 0 0 1-171.52 58.048c-75.392 0-146.304-29.376-199.488-82.688A280.64 280.64 0 0 1 128 282.112c0-75.328 29.44-146.24 82.688-199.424A280.064 280.064 0 0 1 410.112 0c75.328 0 146.24 29.44 199.424 82.688a280.064 280.064 0 0 1 82.688 199.424c0 62.784-20.352 122.368-57.984 171.328l195.2 195.2v-123.52a33.28 33.28 0 1 1 66.56 0V738.56A29.44 29.44 0 0 1 866.56 768zM410.176 74.432a207.936 207.936 0 0 0-207.68 207.68 207.936 207.936 0 0 0 207.68 207.68 207.936 207.936 0 0 0 207.68-207.68 207.936 207.936 0 0 0-207.68-207.68z"  horiz-adv-x="1024" />
      
      <glyph glyph-name="nvsheng" unicode="&#59001;" d="M253.44 0a35.136 35.136 0 0 0-25.088 10.688 38.528 38.528 0 0 0-0.768 53.248l48.384 51.776-70.464 58.048a36.672 36.672 0 0 0-13.376 25.216 39.68 39.68 0 0 0 7.68 27.648 35.84 35.84 0 0 0 28.544 14.208c8 0 16.384-2.752 22.464-8.32l76.16-62.72 56.832 60.8 0.768 0.768 9.152 9.088-7.232 11.072a294.912 294.912 0 0 0-44.16 215.168C366.592 604.16 482.048 704 616.576 704c16.768 0 33.92-1.6 50.688-4.736 151.296-28.8 251.84-180.032 224-336.832-24.32-137.344-139.776-237.248-274.304-237.248a271.872 271.872 0 0 0-162.304 53.696l-10.688 7.872-60.608-64.768 62.912-51.712a38.592 38.592 0 0 0 5.696-52.928 35.84 35.84 0 0 0-28.608-14.208 33.856 33.856 0 0 0-22.464 8.32l-68.608 56.448-53.312-56.832a33.6 33.6 0 0 0-25.6-11.072z m363.2 632.512c-100.992 0-187.84-75.008-206.144-178.048-10.24-56.832 1.92-114.88 33.536-162.688a209.216 209.216 0 0 1 134.528-90.432c12.544-2.368 25.152-3.52 38.08-3.52 100.992 0 187.84 75.008 206.144 178.048 10.24 56.896-1.92 114.56-33.536 162.688a209.216 209.216 0 0 1-134.528 90.432 207.36 207.36 0 0 1-38.08 3.52z"  horiz-adv-x="1024" />
      
      <glyph glyph-name="xuanzhong1" unicode="&#58997;" d="M511.522133-128a511.522133 511.522133 0 1 0 0 1023.044267 511.522133 511.522133 0 0 0 0-1023.044267zM397.448533 182.613333a53.248 53.248 0 0 1 75.3664 0l322.9696 323.037867a53.248 53.248 0 0 1-75.3664 75.3664L432.810667 297.984 304.059733 426.734933A53.248 53.248 0 0 1 228.693333 351.368533l168.7552-168.686933z"  horiz-adv-x="1024" />
      
      <glyph glyph-name="weinengyuyuechenggong" unicode="&#58998;" d="M511.46752 894.93504C229.00736 894.93504 0 665.92768 0 383.46752S229.00736-128 511.46752-128s511.46752 229.00736 511.46752 511.46752S793.92768 894.93504 511.46752 894.93504zM241.74592 298.1888a68.096 68.096 0 0 0 0 136.13056 68.096 68.096 0 0 0 0-136.13056z m272.2816 0a68.096 68.096 0 0 0 0 136.13056 68.096 68.096 0 0 0 0-136.13056z m272.2816 0a68.096 68.096 0 0 0 0 136.13056 68.096 68.096 0 0 0 68.05504-68.05504 68.096 68.096 0 0 0-68.05504-68.07552z"  horiz-adv-x="1024" />
      
      <glyph glyph-name="a-gouxuan3x" unicode="&#58999;" d="M512-128C229.649067-128 0 101.649067 0 384S229.649067 896 512 896 1024 666.350933 1024 384 794.350933-128 512-128z m0 955.733333A444.279467 444.279467 0 0 1 68.266667 384C68.266667 139.332267 267.332267-59.733333 512-59.733333S955.733333 139.332267 955.733333 384 756.667733 827.733333 512 827.733333z"  horiz-adv-x="1024" />
      
      <glyph glyph-name="zhuanye" unicode="&#58992;" d="M149.703779 838.47191h736.359551a92.044944 92.044944 0 0 0 92.044944-92.044944v-736.35955a92.044944 92.044944 0 0 0-92.044944-92.044944H149.703779a92.044944 92.044944 0 0 0-92.044943 92.044944V746.426966a92.044944 92.044944 0 0 0 92.044943 92.044944zM886.06333-93.483146H149.703779A103.688629 103.688629 0 0 0 46.153218 10.067416V746.426966A103.642607 103.642607 0 0 0 149.703779 849.977528h736.359551c57.067865 0 103.550562-46.436674 103.550562-103.550562v-736.35955c0-57.113888-46.482697-103.550562-103.550562-103.550562zM149.703779 826.966292C105.292094 826.966292 69.164454 790.838652 69.164454 746.426966v-736.35955c0-44.411685 36.12764-80.539326 80.539325-80.539326h736.359551c44.411685 0 80.539326 36.12764 80.539326 80.539326V746.426966c0 44.411685-36.12764 80.539326-80.539326 80.539326H149.703779zM625.253982 128.253124l-61.532045 40.821932 177.508674 108.843146v0.690337l9.342562 67.284854H458.468543l30.052675 47.265079h323.537977l9.388584 68.021213H532.150521l30.789034 47.955416h216.90391l10.032899 68.021214h-183.997843l35.115146 54.398561H477.797982l15.739685-17.902741-23.609528-36.49582H287.31097l-10.032898-68.021214h148.928719l-30.835057-47.955416H222.971555l-9.29654-68.021213H351.742431l-72.99164-114.549933h297.075056L485.667824 221.356584l-22.182831 15.739686H300.197263l161.815011-108.843146z"  horiz-adv-x="1024" />
      
      <glyph glyph-name="ziguan" unicode="&#58993;" d="M149.703779 838.47191h736.359551a92.044944 92.044944 0 0 0 92.044944-92.044944v-736.35955a92.044944 92.044944 0 0 0-92.044944-92.044944H149.703779a92.044944 92.044944 0 0 0-92.044943 92.044944V746.426966a92.044944 92.044944 0 0 0 92.044943 92.044944zM886.06333-93.483146H149.703779A103.688629 103.688629 0 0 0 46.153218 10.067416V746.426966A103.642607 103.642607 0 0 0 149.703779 849.977528h736.359551c57.067865 0 103.550562-46.436674 103.550562-103.550562v-736.35955c0-57.113888-46.482697-103.550562-103.550562-103.550562zM149.703779 826.966292C105.292094 826.966292 69.164454 790.838652 69.164454 746.426966v-736.35955c0-44.411685 36.12764-80.539326 80.539325-80.539326h736.359551c44.411685 0 80.539326 36.12764 80.539326 80.539326V746.426966c0 44.411685-36.12764 80.539326-80.539326 80.539326H149.703779zM792.085442 495.558472l26.508944 40.821932 9.296539 68.021214h-241.249797l14.266966 27.199281H464.957712l16.476045-20.065798L435.50333 522.757753h109.533483l10.723236 20.756135h156.798562l-29.362337-47.955416h108.843146z m-367.995685 40.821932l-22.873169 81.597843H285.930296l22.182832-81.597843h115.976629z m-57.988315-149.665078L421.236364 516.314607H308.113128L253.714566 386.715326h112.386876z m195.457438 0l54.398562 62.268404 48.691776-62.268404h133.143011L724.064229 481.93582h-80.171146l29.362337 33.642427h-131.716315l-110.96018-128.862921h130.979955z m-226.200449-190.394966l29.362337 13.622651 12.149933 88.040989h299.238112l-12.149933-88.040989 25.036225-13.622651h81.597843l22.919191 163.241707H276.633757l-22.919191-163.241707h81.643865z m63.695101-80.217169l108.797124 50.118472 94.484135-50.118472h190.440988l-208.34373 110.96018 7.179506 50.808809H455.61515l-7.179505-50.808809-240.559461-110.96018h191.177348z"  horiz-adv-x="1024" />
      
      <glyph glyph-name="simu" unicode="&#58994;" d="M149.703779 838.47191h736.359551a92.044944 92.044944 0 0 0 92.044944-92.044944v-736.35955a92.044944 92.044944 0 0 0-92.044944-92.044944H149.703779a92.044944 92.044944 0 0 0-92.044943 92.044944V746.426966a92.044944 92.044944 0 0 0 92.044943 92.044944zM886.06333-93.483146H149.703779A103.688629 103.688629 0 0 0 46.153218 10.067416V746.426966A103.642607 103.642607 0 0 0 149.703779 849.977528h736.359551c57.067865 0 103.550562-46.436674 103.550562-103.550562v-736.35955c0-57.113888-46.482697-103.550562-103.550562-103.550562zM149.703779 826.966292C105.292094 826.966292 69.164454 790.838652 69.164454 746.426966v-736.35955c0-44.411685 36.12764-80.539326 80.539325-80.539326h736.359551c44.411685 0 80.539326 36.12764 80.539326 80.539326V746.426966c0 44.411685-36.12764 80.539326-80.539326 80.539326H149.703779zM411.939824 116.103191L453.452094 413.914607h88.040989l10.032899 73.037663H464.17533l7.869843 58.724674 76.581393 6.443146 10.078921 72.99164-266.332045-20.710112-10.032899-73.083685 82.334203 6.443146-7.133483-50.808809H270.190611L260.157712 413.914607h86.614292l-41.51227-297.765394h106.68009z m399.475056 0.73636l2.853394 237.660045h-93.793798l-2.853393-130.243596-76.581394-4.326112 131.025978 395.885303h-135.306067l17.902741-25.036225-128.862921-377.292224-10.723236-81.597843 201.164225 11.505618v-26.554966h95.174471z m-519.777797 25.036224L339.592498 393.894831h-70.874606L221.498836 141.875775h70.138247z m211.197123 0l23.609528 252.019056H456.305487l-23.609528-252.019056h70.138247z"  horiz-adv-x="1024" />
      
      <glyph glyph-name="puzhuanzhuanye" unicode="&#58995;" d="M133.546667 814.08h409.6a81.92 81.92 0 0 0 81.92-81.92v-409.6a81.92 81.92 0 0 0-81.92-81.92H133.546667a81.92 81.92 0 0 0-81.92 81.92V732.16a81.92 81.92 0 0 0 81.92 81.92zM543.146667 230.4H133.546667A92.28288 92.28288 0 0 0 41.386667 322.56V732.16A92.24192 92.24192 0 0 0 133.546667 824.32h409.6c50.7904 0 92.16-41.32864 92.16-92.16v-409.6c0-50.83136-41.3696-92.16-92.16-92.16z m-409.6 573.44C94.020267 803.84 61.866667 771.6864 61.866667 732.16v-409.6c0-39.5264 32.1536-71.68 71.68-71.68h409.6c39.5264 0 71.68 32.1536 71.68 71.68V732.16c0 39.5264-32.1536 71.68-71.68 71.68H133.546667zM532.988587 518.3488l5.81632 41.94304h-104.8576l8.06912 57.5488h95.4368l5.81632 41.04192h-57.5488l11.14112 25.3952H394.748587l9.37984-11.14112-5.81632-14.29504h-65.1264l-10.69056 25.43616H238.199467l11.59168-25.3952H189.129387l-5.77536-41.04192h96.78848l-8.06912-57.5488H167.297707L161.481387 518.3488h371.5072z m-165.4784 41.94304h-28.95872L346.538667 617.8816h28.99968l-8.02816-57.5488z m-107.47904 5.77536L255.607467 609.81248H196.215467l4.9152-43.70432h58.90048z m247.11168 0l16.95744 43.25376h-60.2112L446.890667 566.0672h60.2112z m-19.16928-194.43712l19.16928 138.28096H187.777707l-19.16928-138.28096h319.36512zM416.580267 457.3184H257.819307l2.6624 17.408h158.76096l-2.6624-17.408z m-6.67648-50.87232H251.101867l2.21184 16.05632h158.80192l-2.2528-16.05632zM461.226667 568.32h409.6a81.92 81.92 0 0 0 81.92-81.92v-409.6a81.92 81.92 0 0 0-81.92-81.92H461.226667a81.92 81.92 0 0 0-81.92 81.92V486.4a81.92 81.92 0 0 0 81.92 81.92zM870.826667-15.36H461.226667A92.28288 92.28288 0 0 0 369.066667 76.8V486.4A92.24192 92.24192 0 0 0 461.226667 578.56h409.6c50.7904 0 92.16-41.32864 92.16-92.16v-409.6c0-50.83136-41.3696-92.16-92.16-92.16z m-409.6 573.44C421.700267 558.08 389.546667 525.9264 389.546667 486.4v-409.6c0-39.5264 32.1536-71.68 71.68-71.68h409.6c39.5264 0 71.68 32.1536 71.68 71.68V486.4c0 39.5264-32.1536 71.68-71.68 71.68H461.226667zM746.922667 125.87008l-38.33856 25.43616 110.592 67.7888v0.45056l5.81632 41.90208H643.007147l18.71872 29.4912h201.60512l5.81632 42.31168H688.964267l19.16928 29.9008h135.168l6.22592 42.35264H734.880427l21.87264 33.91488H655.049387l9.8304-11.14112-14.7456-22.77376H536.429227l-6.26688-42.35264h92.7744l-19.16928-29.9008H496.288427l-5.81632-42.35264h86.09792l-45.4656-71.35232h185.05728l-56.19712-35.6352-13.84448 9.74848H544.457387l100.7616-67.7888zM308.691627 94.04416H101.556907c-4.87424 0-8.8064 3.4816-8.8064 7.74144v31.04768c0 4.25984 3.93216 7.74144 8.8064 7.74144h207.13472v-46.53056zM221.815467 49.80736c-1.6384 1.4336-2.58048 3.39968-2.58048 5.44768s0.94208 4.01408 2.58048 5.44768l65.3312 57.344-65.3312 57.344a7.08608 7.08608 0 0 0 0 10.93632l12.45184 10.93632a9.66656 9.66656 0 0 0 12.45184 0l90.23488-79.17568-90.27584-79.21664a9.66656 9.66656 0 0 0-12.45184 0l-12.41088 10.93632zM240.452267 32.52224A13.55776 13.55776 0 0 0 231.522987 35.84l-12.41088 10.89536a11.34592 11.34592 0 0 0-3.97312 8.51968c0 3.23584 1.47456 6.3488 4.01408 8.56064l61.80864 54.23104-61.8496 54.31296a11.34592 11.34592 0 0 0-3.97312 8.51968c0 3.23584 1.47456 6.3488 3.97312 8.56064l12.45184 10.93632a13.76256 13.76256 0 0 0 17.85856 0l93.71648-82.28864L249.381547 35.84a13.43488 13.43488 0 0 0-8.92928-3.31776z m0 162.89792a5.44768 5.44768 0 0 1-3.52256-1.2288l-12.41088-10.93632a3.11296 3.11296 0 0 1-1.18784-2.37568c0-0.86016 0.4096-1.67936 1.18784-2.37568l68.8128-60.45696-68.8128-60.416a2.99008 2.99008 0 0 1-1.18784-2.37568c0-0.86016 0.4096-1.67936 1.14688-2.37568l12.45184-10.89536a5.48864 5.48864 0 0 1 7.00416 0l86.75328 76.06272-86.71232 76.14464a5.3248 5.3248 0 0 1-3.52256 1.2288z"  horiz-adv-x="1034" />
      
      <glyph glyph-name="zhuanzhuanpu" unicode="&#58996;" d="M137.347079 800.989691h422.268041a84.453608 84.453608 0 0 0 84.453609-84.453609v-422.268041a84.453608 84.453608 0 0 0-84.453609-84.453608H137.347079a84.453608 84.453608 0 0 0-84.453608 84.453608V716.536082a84.453608 84.453608 0 0 0 84.453608 84.453609zM559.61512 199.257732H137.347079A95.13699 95.13699 0 0 0 42.33677 294.268041V716.536082A95.094763 95.094763 0 0 0 137.347079 811.546392h422.268041c52.361237 0 95.010309-42.606845 95.01031-95.01031v-422.268041c0-52.403464-42.649072-95.010309-95.01031-95.010309zM137.347079 790.43299C96.598213 790.43299 63.450172 757.284948 63.450172 716.536082v-422.268041c0-40.748866 33.148041-73.896907 73.896907-73.896907h422.268041c40.748866 0 73.896907 33.148041 73.896907 73.896907V716.536082c0 40.748866-33.148041 73.896907-73.896907 73.896908H137.347079zM431.879038 344.855753l-39.524289 26.222845 114.012371 69.885361v0.464495l5.996206 43.19802H324.749636l19.297649 30.403299h207.84033l5.996206 43.620289H372.12811l19.762144 30.825567h139.348454l6.418474 43.662515H419.464357l22.549114 34.963794H337.164316l10.134433-11.485691-15.201649-23.478103H214.875491l-6.460701-43.662515h95.643712l-19.762145-30.825567H173.493223l-5.996206-43.662516h88.760742l-46.871752-73.559092h190.780701l-57.935175-36.73732-14.27266 10.049979H223.151945l103.877938-69.88536zM475.161512 547.628866h422.268041a84.453608 84.453608 0 0 0 84.453609-84.453608v-422.268042a84.453608 84.453608 0 0 0-84.453609-84.453608H475.161512a84.453608 84.453608 0 0 0-84.453608 84.453608V463.175258a84.453608 84.453608 0 0 0 84.453608 84.453608zM897.429553-54.103093H475.161512A95.13699 95.13699 0 0 0 380.151203 40.907216V463.175258A95.094763 95.094763 0 0 0 475.161512 558.185567h422.268041c52.361237 0 95.010309-42.606845 95.01031-95.010309v-422.268042c0-52.403464-42.649072-95.010309-95.01031-95.010309zM475.161512 537.072165C434.412646 537.072165 401.264605 503.924124 401.264605 463.175258v-422.268042c0-40.748866 33.148041-73.896907 73.896907-73.896907h422.268041c40.748866 0 73.896907 33.148041 73.896907 73.896907V463.175258c0 40.748866-33.148041 73.896907-73.896907 73.896907H475.161512zM886.957306 242.75134l5.996206 43.240248h-108.100619l8.318681 59.328659h98.388453l5.996207 42.311258h-59.32866l11.485691 26.180619H744.441842l9.669938-11.485691-5.996206-14.737155h-67.140619l-11.021196 26.222846H583.050997l11.950185-26.180619H532.463285l-5.953979-42.311258h99.781938l-8.31868-59.328659H509.956399L503.960192 242.75134h382.997114z m-170.596289 43.240248h-29.85435L694.740893 345.362474h29.896578l-8.276454-59.32866z m-110.803134 5.953979L600.997388 337.043794H539.768522l5.067217-45.056h60.722144z m254.754309 0l17.481897 44.591505h-62.073402L798.196564 291.945567h62.073402z m-19.762144-200.450639l19.762144 142.557691H531.069801l-19.762145-142.557691h329.242392zM766.948729 179.833402H603.277636l2.744742 17.946392h163.671093l-2.744742-17.946392z m-6.88297-52.445691H596.35244l2.280247 16.552908h163.71332l-2.322474-16.552908zM317.908893 58.684701H104.367945c-5.02499 0-9.078763 3.589278-9.078763 7.980866v32.007918c0 4.391588 4.053773 7.980866 9.078763 7.980866h213.540948v-47.96965zM228.345842 13.079753c-1.689072 1.477938-2.660289 3.504825-2.660289 5.616165s0.971216 4.138227 2.660289 5.616164l67.351753 59.117526-67.351753 59.117526a7.305237 7.305237 0 0 0 0 11.274557l12.836948 11.274556a9.965526 9.965526 0 0 0 12.836949 0l93.025649-81.624412-93.067876-81.666639a9.965526 9.965526 0 0 0-12.836948 0l-12.794722 11.274557zM247.559038-4.739959A13.977072 13.977072 0 0 0 238.353595-1.319588l-12.794722 11.23233a11.696825 11.696825 0 0 0-4.096 8.783176c0 3.335918 1.520165 6.545155 4.138227 8.825402l63.720247 55.908288-63.762474 55.992743a11.696825 11.696825 0 0 0-4.096 8.783175c0 3.335918 1.520165 6.545155 4.096 8.825402l12.836948 11.274557a14.188206 14.188206 0 0 0 18.410887 0l96.614928-84.83365L256.764481-1.319588a13.850392 13.850392 0 0 0-9.205443-3.420371z m0 167.936a5.616165 5.616165 0 0 1-3.631505-1.266804l-12.794722-11.274557a3.209237 3.209237 0 0 1-1.224577-2.449154c0-0.886763 0.422268-1.731299 1.224577-2.449155l70.941031-62.326763-70.941031-62.284536a3.082557 3.082557 0 0 1-1.224577-2.449154c0-0.886763 0.422268-1.731299 1.18235-2.449155l12.836949-11.23233a5.658392 5.658392 0 0 1 7.220783 0l89.436371 78.415175-89.394144 78.499629a5.489485 5.489485 0 0 1-3.631505 1.266804z"  horiz-adv-x="1034" />
      
      <glyph glyph-name="jiaoyizuofei" unicode="&#58983;" d="M511.1296 894.976C229.2736 894.976 0.6656 666.5216 0.6656 384.512c0-281.9072 228.4544-510.464 510.464-510.464 281.856 0 510.464 228.4544 510.464 510.464 0 281.856-228.4544 510.464-510.464 510.464z m231.4752-684.5952a33.9456 33.9456 0 0 0 0-48.0256l-9.3696-9.3696a33.9456 33.9456 0 0 0-47.9744 0L511.1296 327.168l-174.0288-174.08a33.9456 33.9456 0 0 0-47.9744 0l-9.3696 9.3184a33.9456 33.9456 0 0 0 0 48.0256l173.9776 174.08-173.9776 174.08a33.9456 33.9456 0 0 0 0 47.9744l9.3696 9.3696a33.9456 33.9456 0 0 0 47.9744 0l174.1312-174.1312 174.0288 174.2336a33.9456 33.9456 0 0 0 47.9744 0l9.3696-9.3696a33.9456 33.9456 0 0 0 0-47.9744L568.6272 384.512l173.9776-174.1312z"  horiz-adv-x="1024" />
      
      <glyph glyph-name="chedan" unicode="&#58984;" d="M0 384c0-282.7776 229.2224-512 512-512s512 229.2224 512 512S794.7776 896 512 896 0 666.7776 0 384zM414.976 321.792c23.296-22.528 28.5696-25.9072 29.8496 16.2304 2.3552 30.8224 0 64.9216 0 64.9216 0.8192 1.8944 51.0976 21.9136 134.144-16.2304 83.0464-38.1952 139.1104-157.3888 148.992-194.6624 0.8192-21.5552 27.2384-63.1808 29.7984 0.8192 0.3584 104.448-38.0928 213.8624-136.0896 276.5824-91.3408 58.5216-167.3216 52.5312-175.7184 49.4592-0.1536-0.8192-0.3584-1.1264-0.768-0.6144-0.1536 0.1536 0.2048 0.4096 0.768 0.6144 0.7168 3.8912-1.4848 24.064-1.6896 61.7984 1.3824 33.9456-7.168 35.0208-29.2864 16.896C374.4768 562.2784 266.24 452.608 266.24 452.608s108.2368-96.1536 148.736-130.816z"  horiz-adv-x="1024" />
      
      <glyph glyph-name="chenggong" unicode="&#58985;" d="M512 896C229.376 896 0 666.624 0 384s229.376-512 512-512 512 229.376 512 512S794.624 896 512 896z m0-955.733333C266.922667-59.733333 68.266667 138.922667 68.266667 384 68.266667 629.077333 266.922667 827.733333 512 827.733333c245.077333 0 443.733333-198.656 443.733333-443.733333 0-245.077333-198.656-443.733333-443.733333-443.733333zM746.901333 576c-10.837333 0-21.674667-4.117333-29.973333-12.501333l-244.053333-246.784-101.802667 102.848a41.941333 41.941333 0 0 1-29.973333 12.501333c-10.837333 0-21.696-4.096-29.973334-12.501333a43.093333 43.093333 0 0 1 0-60.586667l131.754667-133.141333c8.32-8.405333 19.136-12.501333 29.973333-12.501334 10.858667 0 21.696 4.096 29.994667 12.501334l274.026667 276.906666a43.093333 43.093333 0 0 1 0 60.586667A42.112 42.112 0 0 1 746.901333 576z"  horiz-adv-x="1024" />
      
      <glyph glyph-name="shenhebohui" unicode="&#58986;" d="M0 384c0-282.7776 229.2224-512 512-512s512 229.2224 512 512S794.7264 896 512 896C229.1712 896 0 666.7776 0 384zM454.144 688.64c0 32.512 25.9584 58.7776 57.856 58.7776 32 0 57.856-26.368 57.856-58.7776v-411.4432c0-32.512-25.9584-58.7776-57.856-58.7776-32 0-57.856 26.368-57.856 58.7776V688.64zM512 29.9008a52.48 52.48 0 0 0-52.0704 52.8384c0 29.184 23.3472 52.9408 52.0704 52.9408 28.7232 0 52.0704-23.6544 52.0704-52.9408 0-29.184-23.3472-52.8384-52.0704-52.8384z"  horiz-adv-x="1024" />
      
      <glyph glyph-name="shanchu" unicode="&#58987;" d="M202.688 640H160a32 32 0 0 0 0 64h704a32 32 0 1 0 0-64H266.688v-565.312a53.312 53.312 0 0 1 53.312-53.376h384a53.312 53.312 0 0 1 53.312 53.376V544a32 32 0 0 0 64 0v-469.312c0-64.832-52.48-117.376-117.312-117.376H320a117.312 117.312 0 0 0-117.312 117.376V640z m224 106.688a32 32 0 0 0 0 64h170.624a32 32 0 1 0 0-64H426.688z m-32-288a32 32 0 1 0 64 0v-256a32 32 0 1 0-64 0v256z m170.624 0a32 32 0 1 0 64 0v-256a32 32 0 1 0-64 0v256z"  horiz-adv-x="1024" />
      
      <glyph glyph-name="shenhetongguo" unicode="&#58990;" d="M0 384c0-282.7776 229.2224-512 512-512s512 229.2224 512 512S794.7776 896 512 896 0 666.7776 0 384zM458.752 340.1728L339.6608 435.2l-52.8896-43.008L492.8512 179.2c35.6864 92.16 148.0704 272.4352 285.3888 400.5888l-12.5952 29.4912c-149.6064-93.0816-258.048-210.1248-306.8416-269.1072z"  horiz-adv-x="1024" />
      
      <glyph glyph-name="daishenhe" unicode="&#58991;" d="M512-128C229.2224-128 0 101.2224 0 384S229.2224 896 512 896s512-229.2224 512-512-229.2224-512-512-512z m176.64 394.6496l-132.608 101.376V671.0272a44.032 44.032 0 0 1-88.064 0v-346.368l167.2192-127.8976a44.032 44.032 0 0 1 53.4528 69.9392z"  horiz-adv-x="1024" />
      
      <glyph glyph-name="HotEvent" unicode="&#58988;" d="M512 384m-512 0a512 512 0 1 1 1024 0 512 512 0 1 1-1024 0ZM430.634667 88.106667s-311.509333 132.309333-143.146667 324.096c168.277333 191.744 99.370667 273.152 99.370667 273.152s568.32-38.357333 277.888-597.333334h-71.210667s87.68 115.157333 0 169.941334c0 0-104.106667 71.253333-38.4 128.768 0 0-216.746667-27.904-88.021333-298.752h-36.48v0.128z"  horiz-adv-x="1024" />
      
      <glyph glyph-name="NewsContent" unicode="&#58989;" d="M512 384m-512 0a512 512 0 1 1 1024 0 512 512 0 1 1-1024 0ZM754.688 551.978667H721.066667V174.933333h-156.8c0-22.4 14.933333-41.088 33.578666-41.088h156.8c18.688 0 33.621333 18.688 33.621334 41.088V510.933333c0 22.4-14.933333 41.088-33.578667 41.088zM661.333333 637.866667H310.4c-18.688 0-33.621333-18.688-33.621333-41.088V174.933333c0-22.4 14.933333-41.088 33.621333-41.088H661.333333c18.688 0 33.578667 18.688 33.578667 41.088V593.066667c-3.712 26.154667-18.645333 44.8-33.578667 44.8zM343.978667 529.578667h126.976v-126.933334H343.936V529.621333z m253.866666-291.2h-253.866666v41.088h253.866666v-41.088z m0 82.133333h-253.866666v41.088h253.866666v-41.088z m0 85.888h-97.066666v41.045333h93.354666l3.712-41.045333z m0 82.133333h-97.066666v41.045334h93.354666l3.712-41.045334z"  horiz-adv-x="1024" />
      
      <glyph glyph-name="weixin" unicode="&#59080;" d="M1010.773333 267.989333c0 141.226667-141.269333 256.213333-299.861333 256.213334-168.021333 0-300.330667-115.114667-300.330667-256.213334 0-141.397333 132.309333-256.170667 300.330667-256.170666 35.2 0 70.698667 8.874667 105.984 17.664l96.810667-52.992-26.624 88.192c70.912 53.205333 123.733333 123.733333 123.733333 203.306666z m-392.789333 39.210667a39.978667 39.978667 0 1 0 0 79.957333 39.978667 39.978667 0 0 0 0-79.957333z m194.304 0.298667a39.978667 39.978667 0 1 0 0 80 39.978667 39.978667 0 0 0 0-80zM366.293333 789.12C172.16 789.12 13.226667 656.810667 13.226667 488.789333c0-96.981333 52.906667-176.597333 141.312-238.378666l-35.285334-106.24 123.392 61.909333c44.202667-8.661333 79.616-17.664 123.733334-17.664 11.093333 0 22.058667 0.469333 32.981333 1.365333a262.784 262.784 0 0 0-10.922667 74.026667c0 154.282667 132.522667 279.466667 300.202667 279.466667 11.52 0 22.784-0.768 34.005333-2.090667-30.592 142.208-182.698667 247.893333-356.266666 247.893333z m-118.613333-242.346667a48 48 0 1 0 0.042667 96.042667 48 48 0 0 0 0-96z m246.613333 0a48 48 0 1 0 0 96.042667 48 48 0 0 0 0-96z"  horiz-adv-x="1024" />
      
      <glyph glyph-name="guanbi1" unicode="&#59081;" d="M511.317333 790.016c247.466667 0 448-200.576 448-448 0-247.466667-200.533333-448-448-448-247.424 0-448 200.533333-448 448 0 247.424 200.576 448 448 448z m0-64A382.805333 382.805333 0 0 1 239.786667 613.546667a382.762667 382.762667 0 0 1-112.469334-271.530667 382.805333 382.805333 0 0 1 112.469334-271.530667 382.762667 382.762667 0 0 1 271.530666-112.469333 382.805333 382.805333 0 0 1 271.530667 112.469333 382.762667 382.762667 0 0 1 112.469333 271.530667 382.805333 382.805333 0 0 1-112.469333 271.530667 382.762667 382.762667 0 0 1-271.530667 112.469333zM319.36 533.973333a32 32 0 0 0 45.226667 0L512 386.56l147.370667 147.370667a32 32 0 1 0 45.226666-45.226667L557.312 341.333333l147.370667-147.370666a32 32 0 1 0-45.226667-45.226667L512 296.021333l-147.370667-147.370666a31.914667 31.914667 0 0 0-45.226666 0 32 32 0 0 0 0 45.226666L466.688 341.333333 319.36 488.704a32 32 0 0 0 0 45.226667z"  horiz-adv-x="1024" />
      
      <glyph glyph-name="tuijian" unicode="&#59076;" d="M286.464 800l452.032-0.704c24.768-0.064 47.36-14.08 58.432-36.224l156.16-313.088c12.608-25.152 7.68-55.488-12.224-75.392l-382.72-382.656a65.344 65.344 0 0 0-92.352 0L83.136 374.592a65.344 65.344 0 0 0-12.224 75.392L227.84 763.904c11.072 22.144 33.728 36.16 58.56 36.096z m-0.128-64l-0.704-0.192-0.512-0.576-156.992-313.856L128 420.544l0.384-0.704 382.656-382.656 0.96-0.384 0.96 0.384 382.656 382.72 0.384 0.64-0.128 0.896-156.224 313.088-0.512 0.512-0.704 0.256L286.336 736zM721.856 473.28a32 32 0 0 0 47.68-42.24l-3.84-4.352-231.744-218.432a32 32 0 0 0-38.848-3.84l-4.928 3.776-234.24 218.368a32 32 0 0 0 39.104 50.368l4.544-3.52 212.288-197.952 209.92 197.824z"  horiz-adv-x="1024" />
      
      <glyph glyph-name="file_jpeg" unicode="&#58881;" d="M901.631675-30.72008100000005a48.938626 48.938626 0 0 0-48.639959-48.63996H170.496285a47.573294 47.573294 0 0 0-34.303972 14.335989 48.469293 48.469293 0 0 0-14.335988 34.303971V847.359187c-0.085333 12.885323 5.119996 25.301312 14.335988 34.303972 9.002659 9.215992 21.418649 14.421321 34.303972 14.335988h418.815651c13.055989 0 25.557312-5.162662 34.815971-14.335988l263.67978-263.679781c9.258659-9.215992 14.421321-21.759982 14.335988-34.815971V-30.72008100000005h-0.512zM901.631675-30.72008100000005v-48.63996c0.085333-12.885323-5.119996-25.301312-14.335988-34.303971a48.469293 48.469293 0 0 0-34.303971-14.335988H170.496285c-26.879978 0-48.639959 21.759982-48.63996 48.639959v48.63996a48.938626 48.938626 0 0 1 48.63996-48.63996h682.495431c26.879978 0 48.639959 21.759982 48.639959 48.63996zM24.064407 359.423594h975.359187v-243.711797c0-26.879978-21.759982-48.639959-48.63996-48.63996H73.216366a47.573294 47.573294 0 0 0-34.303972 14.335988 48.725293 48.725293 0 0 0-14.335988 34.815971v243.199798H24.064407zM121.856325 359.423594v97.791918L24.064407 359.423594h97.791918z m779.77535 0l1.023999 97.791918 97.279919-97.791918h-98.303918zM901.631675 583.167407v-6.655994h-263.67978c-26.879978 0-48.639959 21.759982-48.639959 48.639959V895.999147c13.055989 0 25.557312-5.162662 34.815971-14.335988l264.191779-263.679781c8.959993-9.343992 13.781322-21.887982 13.311989-34.815971zM311.978833 177.66374499999995c0-50.517291-18.645318-75.775937-55.97862-75.775937-14.549321 0-28.11731 6.485328-40.618632 19.455984l23.55198 26.623978c5.674662-9.343992 11.818657-13.994655 18.431985-13.994655 6.613328 0 11.51999 3.199997 14.847987 9.557325 3.285331 6.399995 4.949329 20.053317 4.949329 40.959966v130.047892h34.815971v-136.874553zM378.197445 107.34913700000004H343.040141v207.189161h54.954621c47.99996 0 72.021273-21.375982 72.021273-64.170613 0-43.69063-22.058648-65.535945-66.218611-65.535946h-25.599979v-77.482602z m0 105.471912h17.407985c25.727979 0 38.570635 12.501323 38.570635 37.546636 0 24.106647-13.226656 36.181303-39.594634 36.181303h-16.383986v-73.727939zM523.263991 284.84232299999996v-53.930622h69.631942v-29.695975h-69.631942v-64.170614h72.021273v-29.695975H488.106687v207.189161h107.178577v-29.695975zM805.546422 217.59971199999995v-5.119996c0-32.981306-8.405326-59.690617-25.258646-80.0426-16.853319-20.351983-39.935967-30.549308-69.290608-30.549308a90.581258 90.581258 0 0 0-70.655942 31.402641c-18.645318 20.906649-27.98931 46.506628-27.98931 76.799936 0 31.40264 9.514659 57.599952 28.50131 78.506601 18.986651 20.906649 43.306631 31.40264 72.874606 31.402641 38.229301 0 65.535945-16.511986 81.919932-49.493292l-31.402641-16.72532c-10.453325 23.893313-27.647977 35.83997-51.54129 35.83997-18.431985 0-33.706639-7.893327-45.738629-23.722647-12.074657-15.786654-18.090652-34.559971-18.090651-56.149286 0-21.631982 5.930662-39.935967 17.749318-54.954621 11.818657-15.018654 27.178644-22.527981 46.079962-22.527981 16.170653 0 29.013309 5.674662 38.570634 17.066652 9.557325 11.391991 14.335988 24.917313 14.335988 40.618633h-49.493292V217.59971199999995h89.429259z"  horiz-adv-x="1024" />
      
      <glyph glyph-name="file_pdf" unicode="&#58882;" d="M901.631675-30.72008100000005a48.938626 48.938626 0 0 0-48.639959-48.63996H170.496285a47.573294 47.573294 0 0 0-34.303972 14.335989 48.469293 48.469293 0 0 0-14.335988 34.303971V847.359187c-0.085333 12.885323 5.119996 25.301312 14.335988 34.303972 9.002659 9.215992 21.418649 14.421321 34.303972 14.335988h418.815651c13.055989 0 25.557312-5.162662 34.815971-14.335988l263.67978-263.679781c9.258659-9.215992 14.421321-21.759982 14.335988-34.815971V-30.72008100000005h-0.512zM901.631675-30.72008100000005v-48.63996c0.085333-12.885323-5.119996-25.301312-14.335988-34.303971a48.469293 48.469293 0 0 0-34.303971-14.335988H170.496285c-26.879978 0-48.639959 21.759982-48.63996 48.639959v48.63996a48.938626 48.938626 0 0 1 48.63996-48.63996h682.495431c26.879978 0 48.639959 21.759982 48.639959 48.63996zM24.064407 359.423594h975.359187v-243.711797c0-26.879978-21.759982-48.639959-48.63996-48.63996H73.216366a47.573294 47.573294 0 0 0-34.303972 14.335988 48.725293 48.725293 0 0 0-14.335988 34.815971v243.199798H24.064407zM121.856325 359.423594v97.791918L24.064407 359.423594h97.791918z m779.77535 0l1.023999 97.791918 97.279919-97.791918h-98.303918zM901.631675 583.167407v-6.655994h-263.67978c-26.879978 0-48.639959 21.759982-48.639959 48.639959V895.999147c13.055989 0 25.557312-5.162662 34.815971-14.335988l264.191779-263.679781c8.959993-9.343992 13.781322-21.887982 13.311989-34.815971zM276.906863 309.71696899999995h66.559944c41.770632 0 76.11727-14.762654 76.11727-61.439949 0-45.013296-34.858638-64.853279-74.794604-64.85328H322.560158v-62.847947H276.906863v189.141176z m65.407945-90.581258c22.143982 0 32.767973 10.239991 32.767973 29.013309 0 18.687984-12.15999 25.599979-34.047972 25.599979H322.560158v-54.613288h19.75465z m109.354576 90.581258h54.485288c57.727952 0 95.914587-27.73331 95.914586-93.610589 0-65.834612-38.186635-95.701254-93.397255-95.701254h-57.002619V309.759635z m51.66929-152.61854c30.719974 0 52.138623 13.951988 52.138623 59.007951s-21.631982 57.471952-52.138623 57.471952h-6.101328v-116.479903h6.101328z m133.845222 152.61854h120.831899v-37.631969h-75.306604v-41.685299h64.810613v-37.973301H682.666524v-72.19194h-45.482628v189.439842zM213.333582 725.332622m42.666631 0l170.666525 0q42.666631 0 42.666631-42.666631l0 0q0-42.666631-42.666631-42.666631l-170.666525 0q-42.666631 0-42.666631 42.666631l0 0q0 42.666631 42.666631 42.666631ZM213.333582 511.999467m42.666631 0l511.999574 0q42.666631 0 42.666631-42.666631l0 0q0-42.666631-42.666631-42.666632l-511.999574 0q-42.666631 0-42.666631 42.666632l0 0q0 42.666631 42.666631 42.666631Z"  horiz-adv-x="1024" />
      
      <glyph glyph-name="file_mp4" unicode="&#58883;" d="M901.631675-30.72008100000005a48.938626 48.938626 0 0 0-48.639959-48.63996H170.496285a47.573294 47.573294 0 0 0-34.303972 14.335989 48.469293 48.469293 0 0 0-14.335988 34.303971V847.359187c-0.085333 12.885323 5.119996 25.301312 14.335988 34.303972 9.002659 9.215992 21.418649 14.421321 34.303972 14.335988h418.815651c13.055989 0 25.557312-5.162662 34.815971-14.335988l263.67978-263.679781c9.258659-9.215992 14.421321-21.759982 14.335988-34.815971V-30.72008100000005h-0.512zM596.522596 346.794271l-126.293228-71.039941a42.666631 42.666631 0 0 0-63.57328 37.205303v142.079881a42.666631 42.666631 0 0 0 63.57328 37.205302l126.293228-71.03994a42.666631 42.666631 0 0 0 0-74.410605zM901.631675-30.72008100000005v-48.63996c0.085333-12.885323-5.119996-25.301312-14.335988-34.303971a48.469293 48.469293 0 0 0-34.303971-14.335988H170.496285c-26.879978 0-48.639959 21.759982-48.63996 48.639959v48.63996a48.938626 48.938626 0 0 1 48.63996-48.63996h682.495431c26.879978 0 48.639959 21.759982 48.639959 48.63996zM24.064407 359.423594h975.359187v-243.711797c0-26.879978-21.759982-48.639959-48.63996-48.63996H73.216366a47.573294 47.573294 0 0 0-34.303972 14.335988 48.725293 48.725293 0 0 0-14.335988 34.815971v243.199798H24.064407zM121.856325 359.423594v97.791918L24.064407 359.423594h97.791918z m779.77535 0l1.023999 97.791918 97.279919-97.791918h-98.303918zM901.631675 583.167407v-6.655994h-263.67978c-26.879978 0-48.639959 21.759982-48.639959 48.639959V895.999147c13.055989 0 25.557312-5.162662 34.815971-14.335988l264.191779-263.679781c8.959993-9.343992 13.781322-21.887982 13.311989-34.815971zM223.573574 314.026298h73.770605l34.346638-116.778569h1.791998l35.839971 116.778569h71.67994v-207.274494h-44.799963v163.071864h-1.791998l-40.0213-123.946563H308.992169l-39.423967 123.946563h-1.791998v-163.071864H223.573574zM476.672029 314.026298h70.826608c15.487987 0 28.50131-1.365332 38.954634-4.05333s18.773318-6.826661 25.087979-12.543989c6.271995-5.674662 10.751991-12.927989 13.439989-21.759982 2.687998-8.874659 4.010663-19.583984 4.010664-32.127973 0-13.525322-1.493332-24.959979-4.479997-34.218638a49.493292 49.493292 0 0 0-14.335988-22.527982 58.410618 58.410618 0 0 0-25.386645-12.373323 161.791865 161.791865 0 0 0-37.333303-3.754663h-25.386645v-63.914614h-45.397296V314.026298z m64.85328-106.922577c7.72266 0 14.207988 0.554666 19.37065 1.621332a28.287976 28.287976 0 0 1 12.714656 5.845328 22.826648 22.826648 0 0 1 6.997328 10.879991c1.407999 4.479996 2.133332 10.239991 2.133331 17.194652a58.026618 58.026618 0 0 1-2.133331 16.72532 22.783981 22.783981 0 0 1-6.997328 11.050657 29.610642 29.610642 0 0 1-12.842656 5.973329 88.661259 88.661259 0 0 1-19.285317 1.791998h-19.413317v-71.082607h19.413317zM797.013096 150.954434h-22.698648v-44.20263h-41.514632v44.20263h-92.287923v42.410632l83.32793 120.661232h50.474625v-126.335894h22.698648v-36.73597z m-64.21328 36.73597V269.22633599999995h-1.791999l-53.759955-79.743934v-1.791998h55.551954z"  horiz-adv-x="1024" />
      
      <glyph glyph-name="file_png" unicode="&#58884;" d="M901.631675-30.72008100000005a48.938626 48.938626 0 0 0-48.639959-48.63996H170.496285a47.573294 47.573294 0 0 0-34.303972 14.335989 48.469293 48.469293 0 0 0-14.335988 34.303971V847.359187c-0.085333 12.885323 5.119996 25.301312 14.335988 34.303972 9.002659 9.215992 21.418649 14.421321 34.303972 14.335988h418.815651c13.055989 0 25.557312-5.162662 34.815971-14.335988l263.67978-263.679781c9.258659-9.215992 14.421321-21.759982 14.335988-34.815971V-30.72008100000005h-0.512zM901.631675-30.72008100000005v-48.63996c0.085333-12.885323-5.119996-25.301312-14.335988-34.303971a48.469293 48.469293 0 0 0-34.303971-14.335988H170.496285c-26.879978 0-48.639959 21.759982-48.63996 48.639959v48.63996a48.938626 48.938626 0 0 1 48.63996-48.63996h682.495431c26.879978 0 48.639959 21.759982 48.639959 48.63996zM24.064407 359.423594h975.359187v-243.711797c0-26.879978-21.759982-48.639959-48.63996-48.63996H73.216366a47.573294 47.573294 0 0 0-34.303972 14.335988 48.725293 48.725293 0 0 0-14.335988 34.815971v243.199798H24.064407zM232.1069 314.026298h70.783941c15.530654 0 28.543976-1.365332 38.954634-4.05333 10.453325-2.687998 18.815984-6.826661 25.087979-12.543989 6.314661-5.674662 10.794658-12.927989 13.482656-21.759982 2.645331-8.874659 4.010663-19.583984 4.010663-32.127973 0-13.525322-1.493332-24.959979-4.479996-34.175972a49.493292 49.493292 0 0 0-14.335988-22.570648 58.410618 58.410618 0 0 0-25.386646-12.373323 161.791865 161.791865 0 0 0-37.333302-3.754663h-25.386646v-63.914614H232.1069V314.026298z m64.810613-106.922577c7.765327 0 14.250655 0.554666 19.413317 1.621332a28.287976 28.287976 0 0 1 12.714656 5.845328 22.826648 22.826648 0 0 1 6.997327 10.879991c1.407999 4.479996 2.090665 10.239991 2.090665 17.194652a58.026618 58.026618 0 0 1-2.090665 16.72532 22.783981 22.783981 0 0 1-6.997327 11.050657 29.610642 29.610642 0 0 1-12.842656 5.973329 88.661259 88.661259 0 0 1-19.285317 1.791998h-19.413318v-71.082607h19.413318zM411.136084 314.026298h69.290609l65.109279-148.138543h1.791999V314.026298h44.501296v-207.274494h-62.421282l-71.67994 157.695869h-1.791998v-157.695869h-44.799963zM724.01049 103.76513999999997c-15.95732 0-30.250641 1.493332-42.879964 4.479996a71.80794 71.80794 0 0 0-32.085307 16.255987c-8.789326 7.893327-15.487987 18.773318-20.181316 32.554639-4.693329 13.866655-6.997328 31.615974-6.997328 53.333289 0 19.925317 2.389331 36.693303 7.167994 50.346625a80.639933 80.639933 0 0 0 20.607983 32.981306 77.653269 77.653269 0 0 0 32.55464 17.919985 160.0852 160.0852 0 0 0 43.30663 5.375995c4.949329 0 10.069325-0.213333 15.359987-0.597332 5.290662-0.426666 10.367991-0.895999 15.231988-1.493332 4.863996-0.597333 9.514659-1.322666 13.909321-2.218665 4.351996-0.895999 8.149327-1.962665 11.349324-3.157331v-39.722634a135.63722 135.63722 0 0 1-25.258645 6.271995 177.493185 177.493185 0 0 1-27.007978 2.090665c-9.983992 0-18.602651-1.023999-25.855978-3.114664a37.034636 37.034636 0 0 1-17.919985-11.093324 50.346625 50.346625 0 0 1-10.453325-20.906649c-2.303998-8.618659-3.41333-19.541317-3.413331-32.68264 0-13.738655 0.981333-25.045312 2.986665-33.877305 1.962665-8.874659 5.162662-15.82932 9.557325-20.906649a34.346638 34.346638 0 0 1 17.151986-10.623991c7.082661-2.005332 15.70132-2.986664 25.855978-2.986664 4.18133 0 8.063993 0.085333 11.64799 0.298666 3.583997 0.213333 7.039994 0.682666 10.453325 1.493332v44.799963h-35.242637v37.930635h77.354602v-113.493239c-7.765327-2.559998-17.706652-4.778663-29.738642-6.570661a254.506455 254.506455 0 0 0-37.461302-2.687998zM121.856325 359.423594v97.791918L24.064407 359.423594h97.791918z m779.77535 0l1.023999 97.791918 97.279919-97.791918h-98.303918zM901.631675 583.167407v-6.655994h-263.67978c-26.879978 0-48.639959 21.759982-48.639959 48.639959V895.999147c13.055989 0 25.557312-5.162662 34.815971-14.335988l264.191779-263.679781c8.959993-9.343992 13.781322-21.887982 13.311989-34.815971z"  horiz-adv-x="1024" />
      
      <glyph glyph-name="file_docx" unicode="&#58885;" d="M901.631675-30.72008100000005a48.938626 48.938626 0 0 0-48.639959-48.63996H170.496285a47.573294 47.573294 0 0 0-34.303972 14.335989 48.469293 48.469293 0 0 0-14.335988 34.303971V847.359187c-0.085333 12.885323 5.119996 25.301312 14.335988 34.303972 9.002659 9.215992 21.418649 14.421321 34.303972 14.335988h418.815651c13.055989 0 25.557312-5.162662 34.815971-14.335988l263.67978-263.679781c9.258659-9.215992 14.421321-21.759982 14.335988-34.815971V-30.72008100000005h-0.512zM213.333582 725.332622m42.666631 0l170.666525 0q42.666631 0 42.666631-42.666631l0 0q0-42.666631-42.666631-42.666631l-170.666525 0q-42.666631 0-42.666631 42.666631l0 0q0 42.666631 42.666631 42.666631ZM213.333582 511.999467m42.666631 0l511.999574 0q42.666631 0 42.666631-42.666631l0 0q0-42.666631-42.666631-42.666632l-511.999574 0q-42.666631 0-42.666631 42.666632l0 0q0 42.666631 42.666631 42.666631ZM901.631675-30.72008100000005v-48.63996c0.085333-12.885323-5.119996-25.301312-14.335988-34.303971a48.469293 48.469293 0 0 0-34.303971-14.335988H170.496285c-26.879978 0-48.639959 21.759982-48.63996 48.639959v48.63996a48.938626 48.938626 0 0 1 48.63996-48.63996h682.495431c26.879978 0 48.639959 21.759982 48.639959 48.63996zM24.064407 359.423594h975.359187v-243.711797c0-26.879978-21.759982-48.639959-48.63996-48.63996H73.216366a47.573294 47.573294 0 0 0-34.303972 14.335988 48.725293 48.725293 0 0 0-14.335988 34.815971v243.199798H24.064407zM121.856325 359.423594v97.791918L24.064407 359.423594h97.791918z m779.77535 0l1.023999 97.791918 97.279919-97.791918h-98.303918zM901.631675 583.167407v-6.655994h-263.67978c-26.879978 0-48.639959 21.759982-48.639959 48.639959V895.999147c13.055989 0 25.557312-5.162662 34.815971-14.335988l264.191779-263.679781c8.959993-9.343992 13.781322-21.887982 13.311989-34.815971zM201.642925 314.026298a196.266503 196.266503 0 0 0 41.386632-4.05333c12.41599-2.687998 23.039981-7.807993 31.957307-15.359987 8.831993-7.551994 15.658654-18.133318 20.437316-31.65864 4.778663-13.525322 7.167994-31.061307 7.167995-52.56529 0-20.095983-2.389331-36.778636-7.167995-50.005291-4.778663-13.226656-11.605324-23.893313-20.479982-31.829307a75.946603 75.946603 0 0 0-31.957307-16.895986 161.962532 161.962532 0 0 0-41.343966-4.906663H130.560318V314.026298h71.082607z m-2.389331-168.447859c9.557325 0 17.877318 0.981333 24.959979 2.986664a37.631969 37.631969 0 0 1 17.621319 10.453324c4.693329 4.991996 8.10666 11.64799 10.453324 20.01065 2.261331 8.36266 3.41333 18.815984 3.413331 31.359974a123.306564 123.306564 0 0 1-3.583997 32.725306 46.677294 46.677294 0 0 1-10.581325 20.01065 36.138637 36.138637 0 0 1-17.621318 9.983992 100.863916 100.863916 0 0 1-24.661313 2.687998h-23.295981v-130.218558h23.295981zM421.589409 103.76513999999997a153.173206 153.173206 0 0 0-40.0213 4.778663 64.34128 64.34128 0 0 0-29.567976 16.853319c-7.935993 8.10666-14.037322 18.986651-18.218651 32.725306-4.18133 13.738655-6.271995 31.146641-6.271995 52.266623 0 21.119982 2.133332 38.527968 6.271995 52.266623 4.18133 13.738655 10.239991 24.618646 18.218651 32.68264 7.97866 8.10666 17.834652 13.695989 29.567976 16.895986a153.173206 153.173206 0 0 0 40.0213 4.778662c15.146654 0 28.586643-1.578665 40.319966-4.778662 11.77599-3.199997 21.631982-8.831993 29.567975-16.895986 7.97866-8.063993 13.994655-18.943984 18.090652-32.68264 4.05333-13.738655 6.101328-31.146641 6.101328-52.266623 0-21.119982-2.047998-38.527968-6.101328-52.266623-4.095997-13.738655-10.111992-24.661313-18.090652-32.725306-7.935993-8.063993-17.791985-13.653322-29.567975-16.853319a154.453205 154.453205 0 0 0-40.319966-4.778663z m0 37.930635c9.557325 0 17.365319 1.194666 23.466647 3.583997a28.714643 28.714643 0 0 1 14.165321 11.647991c3.41333 5.375996 5.717329 12.458656 7.039994 21.205315 1.279999 8.746659 1.919998 19.49865 1.919999 32.255973 0 12.54399-0.639999 23.253314-1.919999 32.085307a57.727952 57.727952 0 0 1-7.039994 21.674649 29.098642 29.098642 0 0 1-14.165321 12.074656 62.506615 62.506615 0 0 1-23.466647 3.754664c-9.557325 0-17.322652-1.279999-23.295981-3.754664a29.183976 29.183976 0 0 1-14.037322-12.074656c-3.370664-5.546662-5.717329-12.799989-6.997327-21.674649-1.279999-8.831993-1.962665-19.541317-1.962665-32.085307 0-12.757323 0.639999-23.466647 1.962665-32.255973 1.279999-8.746659 3.626664-15.82932 6.997327-21.205315 3.41333-5.375996 8.10666-9.258659 14.079989-11.647991 5.973328-2.389331 13.695989-3.583997 23.253314-3.583997zM640.682559 103.76513999999997c-15.146654 0-28.885309 1.493332-41.215965 4.479996a71.765274 71.765274 0 0 0-31.658641 16.255987c-8.789326 7.893327-15.530654 18.773318-20.309316 32.554639-4.778663 13.866655-7.167994 31.615974-7.167994 53.333289 0 19.925317 2.303998 36.693303 6.997328 50.346625 4.693329 13.653322 11.391991 24.618646 20.181316 32.981306 8.746659 8.36266 19.242651 14.335988 31.487974 17.919985a147.199877 147.199877 0 0 0 41.386632 5.375995c19.49865 0 35.626637-2.303998 48.38396-6.869327v-39.125301a133.631889 133.631889 0 0 1-20.90665 5.247996 145.407879 145.407879 0 0 1-24.490646 1.919998c-9.386659 0-17.450652-1.151999-24.19198-3.41333a36.437303 36.437303 0 0 1-16.725319-11.349324 50.943958 50.943958 0 0 1-9.727992-20.77865c-2.090665-8.533326-3.114664-19.199984-3.114664-31.957306 0-13.525322 1.023999-24.618646 3.114664-33.279973 2.133332-8.661326 5.333329-15.530654 9.727992-20.607982a34.389305 34.389305 0 0 1 16.554653-10.623991c6.655994-2.005332 14.591988-2.986664 23.765313-2.986665a141.226549 141.226549 0 0 1 48.38396 8.063994v-38.826635c-6.186662-2.559998-13.653322-4.693329-22.399981-6.271994a156.927869 156.927869 0 0 0-28.074644-2.389332zM762.367791 212.18105000000003l-60.629282 101.845248h52.863955l40.618633-74.069271h1.791999l41.514632 74.069271h52.266623l-61.823948-100.05325 63.914613-107.221244H838.826394l-42.410631 77.653269h-1.791999l-44.799962-77.653269h-52.56529z"  horiz-adv-x="1024" />
      
      <glyph glyph-name="file_zip" unicode="&#58886;" d="M900.176339-31.083437000000004a48.755832 48.755832 0 0 0-48.458282-48.458282H171.771856a47.3956 47.3956 0 0 0-34.175841 14.282441 48.288252 48.288252 0 0 0-14.282441 34.175841V843.716065c-0.085015 12.837194 5.100872 25.206808 14.282441 34.17584 8.969033 9.181569 21.338647 14.367455 34.175841 14.282441h417.251307c13.007223 0 25.461851-5.143379 34.685928-14.282441l262.694894-262.694894c9.224076-9.181569 14.367455-21.678705 14.282441-34.685928V-31.083437000000004h-0.510087zM341.035782 896h70.732088v-47.225571H341.035782v47.183064zM270.303694 848.774429h70.732088V801.633873H270.303694V848.8169359999999zM341.035782 801.633873h70.732088v-47.098049H341.035782V801.633873zM270.303694 754.535824h70.732088v-47.140556H270.303694V754.535824z m70.732088-47.140556h70.732088v-47.098049H341.035782V707.395268zM270.303694 660.297219h70.732088v-47.183064H270.303694v47.183064z m70.732088-47.183064h70.732088v-47.098049H341.035782V613.156663zM411.76787 471.777501h-15.642673V518.960565H285.351266V471.777501h-15.047572V566.016106h141.464176V471.777501z m0-35.663595c0-13.04973-10.966874-11.476961-24.399169-11.476961H294.830386c-13.602325 0-24.441677-1.700291-24.441677 11.264425V471.692487h141.379161v-35.578581zM900.176339-31.083437000000004v-48.458282c0.085015-12.837194-5.100872-25.206808-14.282441-34.17584a48.288252 48.288252 0 0 0-34.175841-14.282441H171.771856c-26.779577 0-48.458281 21.678705-48.458282 48.458281v48.458282a48.755832 48.755832 0 0 1 48.458282-48.458282h679.946201c26.779577 0 48.458281 21.678705 48.458282 48.458282zM25.886924 357.602989h971.716065v-242.801495c0-26.779577-21.678705-48.458281-48.458282-48.458281H74.855293a47.3956 47.3956 0 0 0-34.175841 14.282441 48.543296 48.543296 0 0 0-14.282441 34.685928v242.291407H25.886924zM123.313574 357.602989v97.42665L25.886924 357.602989h97.42665z m776.862765 0l1.020174 97.42665 96.916563-97.42665h-97.936737zM900.176339 580.511083v-6.631133h-262.694894c-26.779577 0-48.458281 21.678705-48.458282 48.458282V892.174346c13.007223 0 25.461851-5.143379 34.685928-14.282441l263.204981-262.694894c8.926526-9.309091 13.729846-21.806227 13.262267-34.685928zM293.980241 146.34188500000005l101.762391 125.268908-0.297551 1.785305H299.633707v38.979161h151.750934v-38.979161l-102.952595-126.459112v-1.785305h110.688917v-39.276712H293.980241zM483.945205 312.375259h45.22773v-206.50029H483.945205zM564.709008 312.375259h70.562059c15.472644 0 28.394853-1.360232 38.809132-4.03819s18.745704-6.801162 24.994272-12.497135c6.248568-5.653466 10.711831-12.879701 13.389788-21.678705 2.677958-8.841511 4.03819-19.510834 4.03819-32.00797 0-13.474803-1.487754-24.86675-4.463263-34.090826a49.308427 49.308427 0 0 0-14.28244-22.443836 58.192445 58.192445 0 0 0-25.291823-12.327107A161.187547 161.187547 0 0 0 635.271067 169.55085099999997h-25.291823v-63.675882H564.709008V312.375259z m64.611042-106.523204c7.736322 0 14.154919 0.552594 19.340805 1.615276a28.182316 28.182316 0 0 1 12.624658 5.823495 22.741386 22.741386 0 0 1 7.013698 10.839352c1.360232 4.463263 2.082856 10.201743 2.082856 17.130428a57.80988 57.80988 0 0 1-2.125363 16.662848 22.698879 22.698879 0 0 1-6.971191 11.009381 29.500042 29.500042 0 0 1-12.75218 5.951017 88.330095 88.330095 0 0 1-19.213283 1.785305h-19.340806v-70.817102h19.340806z"  horiz-adv-x="1024" />
      
      <glyph glyph-name="file_jpg" unicode="&#58887;" d="M901.631675-30.72008100000005a48.938626 48.938626 0 0 0-48.639959-48.63996H170.496285a47.573294 47.573294 0 0 0-34.303972 14.335989 48.469293 48.469293 0 0 0-14.335988 34.303971V847.359187c-0.085333 12.885323 5.119996 25.301312 14.335988 34.303972 9.002659 9.215992 21.418649 14.421321 34.303972 14.335988h418.815651c13.055989 0 25.557312-5.162662 34.815971-14.335988l263.67978-263.679781c9.258659-9.215992 14.421321-21.759982 14.335988-34.815971V-30.72008100000005h-0.512zM901.631675-30.72008100000005v-48.63996c0.085333-12.885323-5.119996-25.301312-14.335988-34.303971a48.469293 48.469293 0 0 0-34.303971-14.335988H170.496285c-26.879978 0-48.639959 21.759982-48.63996 48.639959v48.63996a48.938626 48.938626 0 0 1 48.63996-48.63996h682.495431c26.879978 0 48.639959 21.759982 48.639959 48.63996zM24.064407 359.423594h975.359187v-243.711797c0-26.879978-21.759982-48.639959-48.63996-48.63996H73.216366a47.573294 47.573294 0 0 0-34.303972 14.335988 48.725293 48.725293 0 0 0-14.335988 34.815971v243.199798H24.064407zM405.333422 326.399621v-174.122521c0-16.725319-4.138663-29.226642-12.373323-37.461302-8.277326-8.277326-20.778649-12.41599-37.503969-12.41599H305.877505c-16.725319 0-29.226642 4.138663-37.503969 12.373323-8.23466 8.277326-12.373323 20.778649-12.373323 37.503969v49.578625h49.877292v-49.578625c0-6.954661 2.431998-12.885323 7.338661-17.749319 4.863996-4.906663 10.666658-7.338661 17.450652-7.33866a23.850647 23.850647 0 0 1 17.493319 7.295994 24.19198 24.19198 0 0 1 7.295993 17.791985V326.399621H405.333422zM431.786734 102.39980800000001v223.999813h99.754583c13.567989 0 25.173312-4.949329 34.986638-14.805321 9.727992-9.813325 14.591988-21.546649 14.591987-35.07197v-24.789313c0-13.525322-4.863996-25.258646-14.634654-35.114638a47.445294 47.445294 0 0 0-34.943971-14.762654H481.706692V102.39980800000001H431.786734z m49.919958 124.543896h24.746646a24.19198 24.19198 0 0 1 17.791985 7.295994 23.850647 23.850647 0 0 1 7.295994 17.493319v24.789313a24.19198 24.19198 0 0 1-7.295994 17.749318 24.19198 24.19198 0 0 1-17.791985 7.338661h-24.746646v-74.666605zM682.581191 226.94370400000003h74.666605v-74.666604c0-16.725319-5.290662-29.226642-15.829321-37.461302-10.581325-8.277326-21.802648-12.41599-33.749305-12.41599h-49.919958a48.213293 48.213293 0 0 0-35.071971 14.634654 47.786627 47.786627 0 0 0-14.762654 35.242638v124.24523c0 13.525322 4.821329 25.258646 14.506654 35.114637 9.599992 9.813325 21.418649 14.762654 35.370638 14.762654h49.877291c31.231974 0 47.786627-16.639986 49.578626-49.877291h-24.789313c-2.005332 16.725319-10.239991 25.087979-24.789313 25.087979h-25.087979a23.850647 23.850647 0 0 1-17.493319-7.338661 24.19198 24.19198 0 0 1-7.295993-17.749318v-124.24523c0-6.954661 2.431998-12.885323 7.295993-17.749319 4.863996-4.906663 10.709324-7.338661 17.493319-7.33866 15.914653 0.810666 24.277313 9.173326 25.087979 25.087979v49.578625h-25.087979v25.087979zM121.856325 359.423594v97.791918L24.064407 359.423594h97.791918z m779.77535 0l1.023999 97.791918 97.279919-97.791918h-98.303918zM901.631675 583.167407v-6.655994h-263.67978c-26.879978 0-48.639959 21.759982-48.639959 48.639959V895.999147c13.055989 0 25.557312-5.162662 34.815971-14.335988l264.191779-263.679781c8.959993-9.343992 13.781322-21.887982 13.311989-34.815971z"  horiz-adv-x="1024" />
      
      <glyph glyph-name="file_doc" unicode="&#58888;" d="M901.631675-30.72008100000005a48.938626 48.938626 0 0 0-48.639959-48.63996H170.496285a47.573294 47.573294 0 0 0-34.303972 14.335989 48.469293 48.469293 0 0 0-14.335988 34.303971V847.359187c-0.085333 12.885323 5.119996 25.301312 14.335988 34.303972 9.002659 9.215992 21.418649 14.421321 34.303972 14.335988h418.815651c13.055989 0 25.557312-5.162662 34.815971-14.335988l263.67978-263.679781c9.258659-9.215992 14.421321-21.759982 14.335988-34.815971V-30.72008100000005h-0.512zM213.333582 725.332622m42.666631 0l170.666525 0q42.666631 0 42.666631-42.666631l0 0q0-42.666631-42.666631-42.666631l-170.666525 0q-42.666631 0-42.666631 42.666631l0 0q0 42.666631 42.666631 42.666631ZM213.333582 511.999467m42.666631 0l511.999574 0q42.666631 0 42.666631-42.666631l0 0q0-42.666631-42.666631-42.666632l-511.999574 0q-42.666631 0-42.666631 42.666632l0 0q0 42.666631 42.666631 42.666631ZM901.631675-30.72008100000005v-48.63996c0.085333-12.885323-5.119996-25.301312-14.335988-34.303971a48.469293 48.469293 0 0 0-34.303971-14.335988H170.496285c-26.879978 0-48.639959 21.759982-48.63996 48.639959v48.63996a48.938626 48.938626 0 0 1 48.63996-48.63996h682.495431c26.879978 0 48.639959 21.759982 48.639959 48.63996zM24.064407 359.423594h975.359187v-243.711797c0-26.879978-21.759982-48.639959-48.63996-48.63996H73.216366a47.573294 47.573294 0 0 0-34.303972 14.335988 48.725293 48.725293 0 0 0-14.335988 34.815971v243.199798H24.064407zM302.762841 314.879631a196.266503 196.266503 0 0 0 41.386632-4.05333c12.41599-2.687998 23.039981-7.807993 31.91464-15.359987 8.874659-7.551994 15.70132-18.133318 20.479983-31.658641 4.778663-13.525322 7.167994-31.061307 7.167994-52.565289 0-20.095983-2.389331-36.778636-7.167994-50.005292-4.778663-13.226656-11.605324-23.893313-20.479983-31.829307a75.946603 75.946603 0 0 0-31.91464-16.895985 161.962532 161.962532 0 0 0-41.386632-4.906663H231.680234V314.879631h71.082607z m-2.389331-168.44786c9.557325 0 17.877318 0.981333 24.959979 2.986664a37.631969 37.631969 0 0 1 17.621319 10.453325c4.693329 4.991996 8.10666 11.64799 10.410658 20.01065 2.303998 8.36266 3.455997 18.815984 3.455997 31.359974a123.306564 123.306564 0 0 1-3.583997 32.725306 46.677294 46.677294 0 0 1-10.623992 20.01065 36.138637 36.138637 0 0 1-17.578652 9.983992 100.863916 100.863916 0 0 1-24.661312 2.687997h-23.295981v-130.218558h23.295981zM522.709324 104.618473a153.173206 153.173206 0 0 0-40.0213 4.778663 64.34128 64.34128 0 0 0-29.567975 16.895985c-7.935993 8.021327-14.037322 18.943984-18.218651 32.68264-4.18133 13.738655-6.271995 31.146641-6.271995 52.266623 0 21.119982 2.133332 38.527968 6.271995 52.266623 4.18133 13.738655 10.239991 24.661313 18.218651 32.725306 7.97866 8.063993 17.834652 13.653322 29.567975 16.853319a153.173206 153.173206 0 0 0 40.0213 4.778663c15.146654 0 28.586643-1.578665 40.319967-4.778663 11.77599-3.199997 21.631982-8.789326 29.567975-16.853319 7.97866-8.10666 13.994655-18.986651 18.090652-32.725306 4.05333-13.738655 6.101328-31.146641 6.101328-52.266623 0-21.119982-2.047998-38.527968-6.101328-52.266623-4.095997-13.738655-10.111992-24.618646-18.090652-32.68264-7.935993-8.10666-17.791985-13.695989-29.567975-16.895985a154.453205 154.453205 0 0 0-40.319967-4.778663z m0 37.930635c9.557325 0 17.365319 1.194666 23.466648 3.583997a28.714643 28.714643 0 0 1 14.165321 11.64799c3.41333 5.375996 5.717329 12.458656 7.039994 21.205316 1.279999 8.746659 1.919998 19.49865 1.919999 32.255973 0 12.54399-0.639999 23.253314-1.919999 32.085307a57.727952 57.727952 0 0 1-7.039994 21.674648 29.098642 29.098642 0 0 1-14.165321 12.074657 62.506615 62.506615 0 0 1-23.466648 3.754663c-9.557325 0-17.322652-1.279999-23.29598-3.754663a29.183976 29.183976 0 0 1-14.037322-12.074657c-3.370664-5.546662-5.717329-12.799989-6.997327-21.674648-1.279999-8.831993-1.962665-19.541317-1.962665-32.085307 0-12.757323 0.639999-23.466647 1.962665-32.255973 1.279999-8.746659 3.626664-15.82932 6.997327-21.205316 3.41333-5.375996 8.10666-9.258659 14.079988-11.64799 5.973328-2.389331 13.695989-3.583997 23.253314-3.583997zM741.802475 104.618473c-15.146654 0-28.885309 1.493332-41.215965 4.479996a71.765274 71.765274 0 0 0-31.658641 16.255987c-8.789326 7.893327-15.530654 18.773318-20.309316 32.554639-4.778663 13.866655-7.167994 31.615974-7.167994 53.333289 0 19.925317 2.303998 36.693303 6.997327 50.346625 4.693329 13.653322 11.391991 24.618646 20.181317 32.981306 8.746659 8.36266 19.242651 14.335988 31.487974 17.919985a147.199877 147.199877 0 0 0 41.386632 5.375995c19.49865 0 35.626637-2.303998 48.383959-6.869327v-39.125301a133.631889 133.631889 0 0 1-20.906649 5.205329 145.407879 145.407879 0 0 1-24.490646 1.962665c-9.386659 0-17.450652-1.151999-24.19198-3.413331a36.437303 36.437303 0 0 1-16.725319-11.39199 50.943958 50.943958 0 0 1-9.727992-20.735983c-2.090665-8.533326-3.114664-19.199984-3.114664-31.957307 0-13.525322 1.023999-24.661313 3.114664-33.279972 2.133332-8.703993 5.333329-15.57332 9.727992-20.650649a34.389305 34.389305 0 0 1 16.554653-10.581325c6.655994-2.005332 14.591988-2.986664 23.765313-2.986664a141.226549 141.226549 0 0 1 48.38396 8.063993v-38.826634c-6.186662-2.559998-13.653322-4.693329-22.399982-6.271995a156.927869 156.927869 0 0 0-28.074643-2.389331zM121.856325 359.423594v97.791918L24.064407 359.423594h97.791918z m779.77535 0l1.023999 97.791918 97.279919-97.791918h-98.303918zM901.631675 583.167407v-6.655994h-263.67978c-26.879978 0-48.639959 21.759982-48.639959 48.639959V895.999147c13.055989 0 25.557312-5.162662 34.815971-14.335988l264.191779-263.679781c8.959993-9.343992 13.781322-21.887982 13.311989-34.815971z"  horiz-adv-x="1024" />
      
      <glyph glyph-name="file_xlsx" unicode="&#59040;" d="M588.8 896c12.8 0 25.6-4.266667 34.133333-12.8l264.533334-264.533333c8.533333-8.533333 12.8-21.333333 12.8-34.133334v-614.4c0-25.6-21.333333-46.933333-46.933334-46.933333H170.666667c-12.8 0-25.6 4.266667-34.133334 12.8-8.533333 8.533333-12.8 21.333333-12.8 34.133333V849.066667c0 12.8 4.266667 25.6 12.8 34.133333S157.866667 896 170.666667 896h418.133333zM661.333333 682.666667h128v-128h-128zM448 682.666667h128v-128h-128zM234.666667 682.666667h128v-128h-128zM661.333333 469.333333h128v-128h-128zM448 469.333333h128v-128h-128zM900.266667-29.866667v-46.933333c0-12.8-4.266667-25.6-12.8-34.133333-8.533333-12.8-21.333333-17.066667-34.133334-17.066667H170.666667c-25.6 0-46.933333 21.333333-46.933334 46.933333v46.933334c0-25.6 21.333333-46.933333 46.933334-46.933334h682.666666c25.6 0 46.933333 25.6 46.933334 51.2zM998.4 358.4v-243.2c0-25.6-21.333333-46.933333-46.933333-46.933333H72.533333c-12.8 0-25.6 4.266667-34.133333 12.8-8.533333 8.533333-12.8 21.333333-12.8 34.133333v243.2h972.8zM123.733333 456.533333v-98.133333H25.6l98.133333 98.133333z m780.8 0l98.133334-98.133333h-98.133334v98.133333zM588.8 896c12.8 0 25.6-4.266667 34.133333-12.8l264.533334-264.533333c8.533333-8.533333 12.8-21.333333 12.8-34.133334v-8.533333H640c-25.6 0-46.933333 21.333333-46.933333 46.933333L588.8 896zM281.6 179.2l-38.4-55.466667H192L251.733333 213.333333l-64 89.6h46.933334l42.666666-59.733333 42.666667 59.733333h46.933333L307.2 213.333333l64-89.6H320l-38.4 55.466667zM430.933333 302.933333v-145.066666h72.533334v-34.133334H388.266667v179.2h42.666666zM576 119.466667c-21.333333 0-42.666667 4.266667-59.733333 12.8V170.666667c8.533333-4.266667 21.333333-12.8 29.866666-12.8 12.8-4.266667 21.333333-4.266667 29.866667-4.266667 8.533333 0 12.8 0 17.066667 4.266667 4.266667 4.266667 8.533333 8.533333 8.533333 12.8 0 8.533333-4.266667 12.8-8.533333 17.066666-4.266667 4.266667-12.8 8.533333-25.6 12.8-12.8 4.266667-21.333333 8.533333-29.866667 12.8-8.533333 4.266667-12.8 8.533333-17.066667 17.066667-4.266667 4.266667-4.266667 12.8-4.266666 25.6 0 8.533333 4.266667 17.066667 8.533333 25.6 4.266667 8.533333 12.8 12.8 21.333333 17.066667 8.533333 4.266667 17.066667 8.533333 29.866667 8.533333h8.533333c8.533333 0 17.066667 0 25.6-4.266667 8.533333 0 17.066667-4.266667 21.333334-8.533333v-34.133333c-8.533333 4.266667-12.8 4.266667-21.333334 8.533333-8.533333 0-17.066667 4.266667-25.6 4.266667-8.533333 0-17.066667 0-21.333333-4.266667-4.266667-4.266667-8.533333-8.533333-8.533333-12.8 0-4.266667 4.266667-8.533333 8.533333-12.8 4.266667-4.266667 12.8-8.533333 21.333333-12.8 12.8-4.266667 21.333333-8.533333 29.866667-12.8 8.533333-4.266667 12.8-8.533333 17.066667-17.066667 4.266667-8.533333 8.533333-17.066667 8.533333-25.6 0-8.533333-4.266667-21.333333-8.533333-25.6-4.266667-8.533333-12.8-12.8-21.333334-17.066666-8.533333-4.266667-17.066667-8.533333-29.866666-8.533334 4.266667-4.266667 0-4.266667-4.266667-4.266666zM746.666667 179.2l-38.4-55.466667h-46.933334L725.333333 213.333333l-64 89.6h46.933334l42.666666-59.733333 42.666667 59.733333h46.933333L772.266667 213.333333l64-89.6h-51.2l-38.4 55.466667z"  horiz-adv-x="1024" />
      
      <glyph glyph-name="file_pptx" unicode="&#59041;" d="M588.8 896c12.8 0 25.6-4.266667 34.133333-12.8l264.533334-264.533333c8.533333-8.533333 12.8-21.333333 12.8-34.133334v-614.4c0-25.6-21.333333-46.933333-46.933334-46.933333H170.666667c-12.8 0-25.6 4.266667-34.133334 12.8-8.533333 8.533333-12.8 21.333333-12.8 34.133333V849.066667c0 12.8 4.266667 25.6 12.8 34.133333S157.866667 896 170.666667 896h418.133333zM780.8 473.6h-238.933333V716.8c132.266667 0 238.933333-106.666667 238.933333-243.2zM503.466667 691.2v-238.933333h238.933333c0-132.266667-106.666667-243.2-243.2-243.2S256 315.733333 256 452.266667s115.2 238.933333 247.466667 238.933333zM900.266667-29.866667v-46.933333c0-12.8-4.266667-25.6-12.8-34.133333-8.533333-12.8-21.333333-17.066667-34.133334-17.066667H170.666667c-25.6 0-46.933333 21.333333-46.933334 46.933333v46.933334c0-25.6 21.333333-46.933333 46.933334-46.933334h682.666666c25.6 0 46.933333 25.6 46.933334 51.2zM998.4 358.4v-243.2c0-25.6-21.333333-46.933333-46.933333-46.933333H72.533333c-12.8 0-25.6 4.266667-34.133333 12.8-8.533333 8.533333-12.8 21.333333-12.8 34.133333v243.2h972.8zM123.733333 456.533333v-98.133333H25.6l98.133333 98.133333z m780.8 0l98.133334-98.133333h-98.133334v98.133333zM588.8 896c12.8 0 25.6-4.266667 34.133333-12.8l264.533334-264.533333c8.533333-8.533333 12.8-21.333333 12.8-34.133334v-8.533333H640c-25.6 0-46.933333 21.333333-46.933333 46.933333L588.8 896zM260.266667 307.2c21.333333 0 34.133333-4.266667 46.933333-17.066667 12.8-8.533333 17.066667-25.6 17.066667-46.933333 0-21.333333-4.266667-34.133333-17.066667-42.666667-12.8-8.533333-25.6-17.066667-46.933333-17.066666h-42.666667v-68.266667H170.666667v187.733333h89.6z m-4.266667-85.333333c8.533333 0 17.066667 4.266667 21.333333 8.533333 4.266667 4.266667 8.533333 12.8 8.533334 17.066667 0 8.533333-4.266667 12.8-8.533334 17.066666-4.266667 4.266667-12.8 8.533333-21.333333 8.533334H213.333333v-51.2h42.666667zM439.466667 307.2c21.333333 0 34.133333-4.266667 46.933333-17.066667 12.8-8.533333 17.066667-25.6 17.066667-46.933333 0-21.333333-4.266667-34.133333-17.066667-42.666667-12.8-8.533333-25.6-17.066667-46.933333-17.066666H392.533333v-68.266667h-42.666666v187.733333h89.6z m-4.266667-85.333333c8.533333 0 17.066667 4.266667 21.333333 8.533333 4.266667 4.266667 8.533333 12.8 8.533334 17.066667 0 8.533333-4.266667 12.8-8.533334 17.066666-4.266667 4.266667-12.8 8.533333-21.333333 8.533334h-42.666667v-51.2h42.666667zM516.266667 307.2h140.8v-34.133333h-46.933334v-149.333334h-42.666666v149.333334h-46.933334v34.133333zM759.466667 179.2l-42.666667-59.733333h-51.2l64 93.866666-68.266667 93.866667h51.2l42.666667-59.733333 42.666667 59.733333H853.333333L785.066667 213.333333l64-93.866666h-51.2l-38.4 59.733333z"  horiz-adv-x="1024" />
      
      <glyph glyph-name="file_ppt" unicode="&#59042;" d="M588.8 896c12.8 0 25.6-4.266667 34.133333-12.8l264.533334-264.533333c8.533333-8.533333 12.8-21.333333 12.8-34.133334v-614.4c0-25.6-21.333333-46.933333-46.933334-46.933333H170.666667c-12.8 0-25.6 4.266667-34.133334 12.8-8.533333 8.533333-12.8 21.333333-12.8 34.133333V849.066667c0 12.8 4.266667 25.6 12.8 34.133333S157.866667 896 170.666667 896h418.133333zM780.8 473.6h-238.933333V716.8c132.266667 0 238.933333-106.666667 238.933333-243.2zM503.466667 691.2v-238.933333h238.933333c0-132.266667-106.666667-243.2-243.2-243.2S256 315.733333 256 452.266667s115.2 238.933333 247.466667 238.933333zM900.266667-29.866667v-46.933333c0-12.8-4.266667-25.6-12.8-34.133333-8.533333-12.8-21.333333-17.066667-34.133334-17.066667H170.666667c-25.6 0-46.933333 21.333333-46.933334 46.933333v46.933334c0-25.6 21.333333-46.933333 46.933334-46.933334h682.666666c25.6 0 46.933333 25.6 46.933334 51.2zM998.4 358.4v-243.2c0-25.6-21.333333-46.933333-46.933333-46.933333H72.533333c-12.8 0-25.6 4.266667-34.133333 12.8-8.533333 8.533333-12.8 21.333333-12.8 34.133333v243.2h972.8zM123.733333 456.533333v-98.133333H25.6l98.133333 98.133333z m780.8 0l98.133334-98.133333h-98.133334v98.133333zM588.8 896c12.8 0 25.6-4.266667 34.133333-12.8l264.533334-264.533333c8.533333-8.533333 12.8-21.333333 12.8-34.133334v-8.533333H640c-25.6 0-46.933333 21.333333-46.933333 46.933333L588.8 896zM362.666667 298.666667c21.333333 0 34.133333-4.266667 46.933333-17.066667 12.8-8.533333 17.066667-25.6 17.066667-42.666667s-4.266667-34.133333-17.066667-42.666666c-12.8-8.533333-25.6-17.066667-46.933333-17.066667h-42.666667v-64h-42.666667V298.666667h85.333334z m-4.266667-81.066667c8.533333 0 17.066667 4.266667 21.333333 8.533333s8.533333 8.533333 8.533334 17.066667-4.266667 12.8-8.533334 17.066667c-4.266667 4.266667-12.8 8.533333-21.333333 8.533333h-42.666667v-51.2h42.666667zM537.6 298.666667c17.066667 0 34.133333-4.266667 46.933333-17.066667 12.8-8.533333 17.066667-25.6 17.066667-42.666667s-4.266667-34.133333-17.066667-42.666666c-12.8-8.533333-25.6-17.066667-46.933333-17.066667h-42.666667v-64h-42.666666V298.666667h85.333333z m-4.266667-81.066667c8.533333 0 17.066667 4.266667 21.333334 8.533333 4.266667 4.266667 8.533333 8.533333 8.533333 17.066667s-4.266667 12.8-8.533333 17.066667c-4.266667 4.266667-12.8 8.533333-21.333334 8.533333h-42.666666v-51.2h42.666666zM610.133333 298.666667h136.533334v-34.133334h-46.933334v-149.333333h-42.666666v149.333333h-46.933334V298.666667z"  horiz-adv-x="1024" />
      
      <glyph glyph-name="file_xls" unicode="&#59043;" d="M588.8 896c12.8 0 25.6-4.266667 34.133333-12.8l264.533334-264.533333c8.533333-8.533333 12.8-21.333333 12.8-34.133334v-614.4c0-25.6-21.333333-46.933333-46.933334-46.933333H170.666667c-12.8 0-25.6 4.266667-34.133334 12.8-8.533333 8.533333-12.8 21.333333-12.8 34.133333V849.066667c0 12.8 4.266667 25.6 12.8 34.133333S157.866667 896 170.666667 896h418.133333zM661.333333 682.666667h128v-128h-128zM448 682.666667h128v-128h-128zM234.666667 682.666667h128v-128h-128zM661.333333 469.333333h128v-128h-128zM234.666667 469.333333h128v-128h-128zM123.733333-29.866667h776.533334V-128H123.733333zM998.4 358.4v-243.2c0-25.6-21.333333-46.933333-46.933333-46.933333H72.533333c-12.8 0-25.6 4.266667-34.133333 12.8-8.533333 8.533333-12.8 21.333333-12.8 34.133333v243.2h972.8zM123.733333 456.533333v-98.133333H25.6l98.133333 98.133333z m780.8 0l98.133334-98.133333h-98.133334v98.133333zM588.8 896c12.8 0 25.6-4.266667 34.133333-12.8l264.533334-264.533333c8.533333-8.533333 12.8-21.333333 12.8-34.133334v-8.533333H640c-25.6 0-46.933333 21.333333-46.933333 46.933333L588.8 896zM354.133333 174.933333l-46.933333-64H256L324.266667 213.333333l-72.533334 102.4h55.466667l46.933333-68.266666 46.933334 68.266666h55.466666L384 213.333333l72.533333-102.4H401.066667l-46.933334 64zM529.066667 315.733333v-166.4h81.066666v-38.4h-132.266666v204.8h51.2zM695.466667 106.666667c-25.6 0-51.2 4.266667-68.266667 17.066666v42.666667c12.8-8.533333 21.333333-12.8 34.133333-17.066667 12.8-4.266667 25.6-8.533333 34.133334-8.533333 8.533333 0 17.066667 4.266667 21.333333 8.533333 4.266667 4.266667 8.533333 8.533333 8.533333 12.8 0 8.533333-4.266667 12.8-8.533333 21.333334-4.266667 4.266667-17.066667 12.8-29.866667 17.066666-12.8 4.266667-25.6 8.533333-34.133333 12.8-8.533333 4.266667-12.8 12.8-17.066667 17.066667-4.266667 8.533333-4.266667 17.066667-4.266666 25.6 0 8.533333 4.266667 21.333333 8.533333 29.866667 4.266667 8.533333 12.8 17.066667 21.333333 21.333333 8.533333 4.266667 21.333333 8.533333 34.133334 8.533333h8.533333c8.533333 0 21.333333 0 29.866667-4.266666 8.533333 0 17.066667-4.266667 25.6-8.533334v-38.4c-8.533333 4.266667-17.066667 4.266667-25.6 8.533334-8.533333 4.266667-17.066667 4.266667-25.6 4.266666-8.533333 0-17.066667 0-21.333334-4.266666-4.266667-4.266667-8.533333-8.533333-8.533333-12.8 0-4.266667 4.266667-12.8 8.533333-17.066667 4.266667-4.266667 12.8-8.533333 25.6-12.8 12.8-4.266667 25.6-8.533333 34.133334-12.8s17.066667-12.8 21.333333-21.333333 8.533333-17.066667 8.533333-29.866667c0-12.8-4.266667-21.333333-8.533333-29.866667-4.266667-8.533333-12.8-17.066667-21.333333-21.333333-8.533333-4.266667-21.333333-8.533333-34.133334-8.533333h-17.066666z"  horiz-adv-x="1024" />
      
      <glyph glyph-name="tishi" unicode="&#59074;" d="M248.558933 675.293867a29.354667 29.354667 0 1 0 5.256534-58.368l-5.256534-0.477867h-58.368a29.354667 29.354667 0 0 1-28.808533-24.098133l-0.477867-5.3248v-442.299734a29.354667 29.354667 0 0 1 24.029867-28.945066l5.256533-0.477867h205.346134c7.304533 0 14.336-2.730667 19.6608-7.645867l3.6864-3.959466 70.178133-92.9792a29.218133 29.218133 0 0 1 42.871467-4.096l3.549866 3.959466 71.543467 93.252267a29.218133 29.218133 0 0 0 17.749333 10.922667l5.461334 0.546133h203.5712a29.354667 29.354667 0 0 1 28.808533 24.1664l0.477867 5.256533V587.025067a29.354667 29.354667 0 0 1-24.029867 28.945066l-5.256533 0.477867h-63.965867a29.354667 29.354667 0 1 0-5.256533 58.368l5.256533 0.477867h63.965867c45.2608 0 83.012267-34.542933 87.381333-79.803734l0.4096-8.465066v-442.299734a88.064 88.064 0 0 0-79.325867-87.8592l-8.465066-0.4096H644.5056l-62.6688-81.783466a87.381333 87.381333 0 0 0-116.1216-20.8896l-6.9632 4.846933a87.995733 87.995733 0 0 0-11.332267 10.581333l-4.983466 5.9392-61.44 81.3056H190.2592a87.995733 87.995733 0 0 0-87.381333 79.735467L102.4 144.725333V587.025067a88.064 88.064 0 0 0 79.325867 87.8592l8.465066 0.4096h58.368z m257.911467-372.736c20.48 0 37.137067-16.725333 37.137067-37.341867v-26.350933a37.205333 37.205333 0 0 0-37.137067-37.341867 37.205333 37.205333 0 0 0-37.0688 37.341867V265.216c0 20.616533 16.5888 37.341867 37.0688 37.341867zM513.8432 759.466667c51.336533 0 93.047467-13.9264 125.269333-41.847467 32.085333-27.921067 48.128-63.965867 48.128-108.270933 0-28.2624-6.417067-52.701867-19.319466-73.1136-12.834133-20.48-37.2736-45.738667-73.386667-75.707734-36.864-30.242133-55.296-64.853333-55.296-103.8336l-0.546133-3.8912a14.7456 14.7456 0 0 0-14.199467-10.581333h-43.008a7.3728 7.3728 0 0 0-6.9632 7.850667c0 37.888 3.618133 65.399467 10.8544 82.397866 7.168 17.066667 23.688533 37.137067 49.3568 60.279467l26.2144 23.483733c35.2256 31.880533 52.906667 63.351467 52.906667 94.4128 0 26.624-9.557333 48.469333-28.4672 65.536-19.0464 17.066667-43.144533 25.531733-72.362667 25.531734-76.1856 0-114.346667-44.2368-114.346667-132.778667H329.454933c0 58.299733 16.5888 104.584533 49.834667 138.990933C412.398933 742.263467 457.250133 759.466667 513.8432 759.466667z"  horiz-adv-x="1024" />
      
      <glyph glyph-name="liebiaoshangjiantou" unicode="&#58973;" d="M512 709.818182L930.909091 104.727273H93.090909z"  horiz-adv-x="1024" />
      
      <glyph glyph-name="liebiaoxiajiantou" unicode="&#58977;" d="M512 11.636364L930.909091 616.727273H93.090909z"  horiz-adv-x="1024" />
      
      <glyph glyph-name="fuzhushangjiantou" unicode="&#58972;" d="M884.906667 213.504a37.717333 37.717333 0 0 0-53.248 0L512 533.162667 192.341333 213.504a37.717333 37.717333 0 1 0-53.333333 53.248l319.744 319.658667a75.349333 75.349333 0 0 0 106.581333 0l319.658667-319.658667a37.717333 37.717333 0 0 0 0-53.248z"  horiz-adv-x="1024" />
      
      <glyph glyph-name="dangqianyuedu" unicode="&#58974;" d="M904 776H120A56.064 56.064 0 0 1 64 720v-672c0-30.912 25.088-56 56-56h784A56.064 56.064 0 0 1 960 48V720a56.064 56.064 0 0 1-56 56z m0-728H120V603.328h784v-555.328zM120 664V720h784v-56H120zM232 187.968a27.648 27.648 0 1 1 49.792-16.896l0.384-0.256 179.712 231.68 123.328-82.176c12.416-8.32 27.2-11.392 42.112-8.32 14.72 3.008 27.264 11.392 33.472 21.12l124.48 144.64-0.192 0.256a27.712 27.712 0 1 1-41.984 36.16l-0.192 0.192-126.72-147.584-123.264 82.24a55.616 55.616 0 0 1-75.008-12.032l-180.032-231.872 0.384-0.32a26.944 26.944 0 0 1-6.272-16.768z"  horiz-adv-x="1024" />
      
      <glyph glyph-name="fuzhuxiajiantou" unicode="&#58975;" d="M884.906667 554.496a37.717333 37.717333 0 0 1-53.248 0L512 234.837333 192.341333 554.496a37.717333 37.717333 0 1 1-53.333333-53.248l319.744-319.658667a75.349333 75.349333 0 0 1 106.581333 0l319.658667 319.658667a37.717333 37.717333 0 0 1 0 53.248z"  horiz-adv-x="1024" />
      
      <glyph glyph-name="kehutongji" unicode="&#58976;" d="M232 384v-224h-112V384h112m0 56h-112A56.064 56.064 0 0 1 64 384v-224c0-30.912 25.088-56 56-56h112A56.064 56.064 0 0 1 288 160V384a56.064 56.064 0 0 1-56 56z m672 168v-448h-112v448h112m0 56h-112a56.064 56.064 0 0 1-56-56v-448c0-30.912 25.088-56 56-56h112A56.064 56.064 0 0 1 960 160v448a56.064 56.064 0 0 1-56 56z m28.032-672H91.968a27.968 27.968 0 1 0 0 56h840.064a27.968 27.968 0 1 0 0-56zM568 832c30.912 0 56-25.088 56-56V160a56.064 56.064 0 0 0-56-56h-112a56.064 56.064 0 0 0-56 56V776c0 30.912 25.088 56 56 56z m0-56h-112V160h112V776z"  horiz-adv-x="1024" />
      
      <glyph glyph-name="dangqian" unicode="&#58978;" d="M824.896 142.08V614.72c0 37.312-31.296 67.84-70.144 67.84H269.248c-38.848 0-70.144-30.528-70.144-67.84v-490.048c0-37.376 31.296-67.84 70.144-67.84h470.336c47.104 0 85.312 38.144 85.312 85.248z m-85.312-142.208H269.248c-69.952 0-127.04 55.744-127.04 124.8V614.72c0 69.056 57.088 124.736 127.04 124.736h485.504c69.952 0 127.04-55.68 127.04-124.736v-472.64a142.208 142.208 0 0 0-142.208-142.208z m-426.688 244.672h398.208c18.944 0 28.48-9.472 28.48-28.416 0-18.944-9.536-28.48-28.48-28.48H312.96c-18.944 0-28.48 9.536-28.48 28.48 0 18.944 9.536 28.416 28.48 28.416zM652.8 489.536a28.48 28.48 0 1 1-40.192 40.32l-140.8-140.8-60.352 60.288a28.48 28.48 0 0 1-40.256-40.256l80.512-80.448c9.728-9.728 24.96-11.136 36.288-3.264l3.968 3.264 160.896 160.896H652.8z"  horiz-adv-x="1024" />
      
      <glyph glyph-name="yiwen1" unicode="&#58979;" d="M512 832a448 448 0 1 0 0-896A448 448 0 0 0 512 831.926857z m0-76.068571a372.077714 372.077714 0 1 1 0.146286-744.082286A372.077714 372.077714 0 0 1 512 756.004571zM512 204.068571a40.009143 40.009143 0 1 0 0-80.018285 40.009143 40.009143 0 0 0 0 80.018285z m0 416.036572c41.984 0 81.627429-14.409143 111.616-40.740572 31.158857-27.282286 48.420571-64 48.274286-103.277714 0-57.782857-38.034286-109.787429-97.060572-132.534857a48.274286 48.274286 0 0 1-30.939428-44.763429v-22.674285c0-4.388571-3.657143-8.045714-8.045715-8.045715h-47.908571a8.045714 8.045714 0 0 0-8.045714 8.045715v21.430857a111.762286 111.762286 0 0 0 71.972571 105.764571c34.157714 13.165714 56.173714 41.691429 56.173714 72.777143 0 44.105143-43.154286 80.018286-96.036571 80.018286s-96.036571-35.913143-96.036571-80.018286v-7.606857c0-4.388571-3.584-8.045714-7.972572-8.045714h-47.981714a8.045714 8.045714 0 0 0-8.045714 8.045714v7.606857c0 39.277714 17.261714 75.995429 48.420571 103.277714 29.988571 26.185143 69.632 40.740571 111.616 40.740572z"  horiz-adv-x="1024" />
      
      <glyph glyph-name="chanpinshouru" unicode="&#58980;" d="M456.32 800H123.712a27.712 27.712 0 0 1-27.712-27.712v-332.8c0-15.36 12.416-27.776 27.712-27.776H456.32c15.36 0 27.712 12.416 27.712 27.776v332.8A27.712 27.712 0 0 1 456.32 800z m-27.712-332.8h-277.12V744.512h277.12V467.2z m27.712-110.912H123.712a27.712 27.712 0 0 1-27.712-27.776v-332.8c0-15.296 12.416-27.712 27.712-27.712H456.32c15.36 0 27.712 12.416 27.712 27.712v332.8a27.712 27.712 0 0 1-27.712 27.776z m-27.712-332.8h-277.12V300.8h277.12v-277.312z m471.232 332.8H567.232a27.712 27.712 0 0 1-27.712-27.776v-332.8c0-15.296 12.416-27.712 27.712-27.712h332.608c15.36 0 27.712 12.416 27.712 27.712v332.8a27.712 27.712 0 0 1-27.712 27.776z m-27.712-332.8H594.944V300.8h277.12v-277.312zM714.112 397.568a27.712 27.712 0 0 1 39.36 0l166.336 166.4a27.712 27.712 0 0 1 0 39.36l-166.336 166.4a27.712 27.712 0 0 1-39.36 0l-166.272-166.4a27.712 27.712 0 0 1 0-39.36l166.272-166.4z m19.392 313.344l126.976-127.552-126.976-127.04-126.912 127.04 126.912 127.552z"  horiz-adv-x="1024" />
      
      <glyph glyph-name="yejishuju" unicode="&#58981;" d="M961.92 104.704s-88.832-17.792-178.88-36.288l-119.744-133.504-128.64 219.52c-7.296-0.384-14.464-1.024-21.888-1.024-7.488 0-14.72 0.64-21.952 1.024l-128.64-219.52-119.808 133.504a44432.512 44432.512 0 0 1-178.816 36.288L203.52 343.488a333.952 333.952 0 0 0-35.456 149.44C168.064 680.576 322.304 832.64 512.768 832.64c190.4 0 344.64-152 344.64-339.648 0-53.76-12.992-104.256-35.52-149.44l139.968-238.72z m-291.968-67.968s43.072 40.832 83.648 80.256l115.392 32.896-81.28 138.816a345.152 345.152 0 0 0-192.128-125.12l74.368-126.848z m-513.472 113.152s58.048-16.64 115.392-32.896c40.576-39.424 83.648-80.256 83.648-80.256l74.368 126.912a344.96 344.96 0 0 0-192.064 125.12l-81.28-138.88z m356.288 626.944a280.576 280.576 0 0 1-280.32-280.768 280.576 280.576 0 0 1 280.32-280.832A280.512 280.512 0 0 1 792.96 496a280.448 280.448 0 0 1-280.192 280.768zM512.768 692.352a196.352 196.352 0 1 0 0-392.768 196.416 196.416 0 1 0 0 392.768z m0-56.064a140.288 140.288 0 1 1 0-280.512 140.288 140.288 0 0 1 0 280.512z"  horiz-adv-x="1024" />
      
      <glyph glyph-name="baoyouliang" unicode="&#58982;" d="M627.264 245.504m-192 0a192 192 0 1 1 384 0 192 192 0 1 1-384 0ZM484.672-77.12L147.2 117.696a64 64 0 0 0-32 55.424V562.688a64 64 0 0 0 32 55.424l337.408 194.816a64 64 0 0 0 64 0l337.408-194.816a64 64 0 0 0 32-55.424v-389.568a64 64 0 0 0-32-55.424l-337.408-194.816a64 64 0 0 0-64 0zM211.2 154.624l273.408-157.824a64 64 0 0 1 64 0l273.408 157.824a64 64 0 0 1 32 55.424V525.76a64 64 0 0 1-32 55.424L548.672 739.008a64 64 0 0 1-64 0L211.2 581.184a64 64 0 0 1-32-55.424v-315.712a64 64 0 0 1 32-55.424zM388.096 613.376a574.016 574.016 0 0 0-116.224-212.48l12.288-39.424c19.968 21.504 38.4 44.544 55.808 68.608v-290.304h37.376v350.72c17.92 33.792 33.28 69.12 45.568 107.008l-34.816 15.872z m65.024-26.112v-161.28h101.888v-55.808H412.672v-35.84h105.984a385.856 385.856 0 0 0-119.808-133.12l20.992-33.28c51.712 39.936 94.72 95.232 129.024 166.4h6.144V140.8h36.864V334.336h6.144c33.28-66.048 75.264-121.344 126.464-165.888l23.552 32.256a435.776 435.776 0 0 0-119.808 133.632h111.104v35.84H591.872v55.808h102.912v161.28H453.12z m205.312-125.952h-168.96V551.936h168.96v-90.624z"  horiz-adv-x="1024" />
      
      <glyph glyph-name="weixuanzhong" unicode="&#58970;" d="M512-14.208A398.208 398.208 0 1 1 512 782.208a398.208 398.208 0 0 1 0-796.416z m0-56.96A455.104 455.104 0 1 0 512 839.168 455.104 455.104 0 0 0 512-71.04z"  horiz-adv-x="1024" />
      
      <glyph glyph-name="xuanzhong" unicode="&#58971;" d="M512-14.208A398.208 398.208 0 1 1 512 782.208a398.208 398.208 0 0 1 0-796.416z m0-56.96A455.104 455.104 0 1 0 512 839.168 455.104 455.104 0 0 0 512-71.04zM512 384m-256 0a256 256 0 1 1 512 0 256 256 0 1 1-512 0Z"  horiz-adv-x="1024" />
      
      <glyph glyph-name="beizhu" unicode="&#59073;" d="M512 832a448 448 0 1 1 0-896A448 448 0 0 1 512 832z m84.032-343.04l-87.04-301.44c-4.8-17.28-7.168-28.608-7.168-33.92 0-3.072 1.28-6.016 3.776-8.704a10.88 10.88 0 0 1 8.128-3.968c4.8 0 9.6 2.048 14.4 6.4 12.672 10.496 27.968 29.376 45.76 56.768l14.4-8.512c-42.688-74.368-88-111.552-136.064-111.552-18.432 0-33.024 5.12-43.904 15.488a51.584 51.584 0 0 0-16.32 39.168c0 10.496 2.368 23.68 7.168 39.936l58.88 202.688c5.76 19.456 8.576 34.176 8.576 44.096a21.568 21.568 0 0 1-8.128 16.512 31.872 31.872 0 0 1-22.016 7.168c-4.16 0-9.28-0.064-15.296-0.384l5.504 17.024 143.68 23.296h25.6v-0.128z m17.792 88.64a60.032 60.032 0 0 0-44.16-18.176 59.84 59.84 0 0 0-43.648 18.176 60.032 60.032 0 0 0-18.24 44.16c0 17.152 6.016 31.872 18.048 44.032a59.52 59.52 0 0 0 43.904 18.176c17.472 0 32.256-6.08 44.288-18.176 11.968-12.16 17.984-26.88 17.984-44.096a60.416 60.416 0 0 0-18.176-44.096z"  horiz-adv-x="1024" />
      
      <glyph glyph-name="chengli" unicode="&#59072;" d="M579.2 316.16C798.912 298.88 960 228.224 960 128c0-116.544-190.4-192-448-192s-448 75.456-448 192c0 74.88 87.68 131.968 225.344 164.608a32 32 0 1 0 14.72-62.336C193.088 204.032 128 161.664 128 128c0-65.024 158.976-128 384-128s384 62.976 384 128c0 50.752-134.016 109.632-321.792 124.352a32 32 0 1 0 4.992 63.808zM696.256 831.04a32 32 0 0 0 39.744-31.104l-0.448-5.184-28.928-173.44 145.344-116.352a32 32 0 0 0-5.248-53.376l-5.312-2.176L436.992 325.12l42.24-190.08a32 32 0 0 0-18.816-36.48l-5.504-1.728a32 32 0 0 0-36.416 18.816l-1.728 5.504-128 576a32 32 0 0 0 18.112 36.096l5.376 1.92 384 96zM664.32 757.12L358.016 680.512l65.088-292.8L764.736 492.8l-112.704 90.24A32 32 0 0 0 640 607.552l0.448 5.76 23.872 143.808z"  horiz-adv-x="1024" />
      
      <glyph glyph-name="daoxu" unicode="&#59069;" d="M512 29.568L236.288 344.64h551.424zM512 738.432L236.288 423.36h551.424z"  horiz-adv-x="1024" />
      
      <glyph glyph-name="zhengxu" unicode="&#59070;" d="M512 29.568L236.288 344.64h551.424zM512 738.432L236.288 423.36h551.424z"  horiz-adv-x="1024" />
      
      <glyph glyph-name="paixu" unicode="&#59071;" d="M512 29.568L236.288 344.64h551.424zM512 738.432L236.288 423.36h551.424z"  horiz-adv-x="1024" />
      
      <glyph glyph-name="jigou" unicode="&#58969;" d="M0 896h1024v-1024H0zM653.4144 384H777.329778v-243.8144h64.147911V42.666667h-644.437333v97.518933h456.362666V384z m-74.365156 0v-243.8144h-123.790222V384h123.8016z m-198.291911 0v-243.8144H256.830578V384H380.768711zM517.688889 725.333333c2.639644 0 5.256533-0.534756 7.68-1.558755l3.424711-1.854578 328.271644-230.786844c6.644622-4.585244 9.329778-12.970667 6.599112-20.48-2.161778-6.087111-7.350044-10.638222-13.732978-12.049067l-3.970845-0.386845H189.405867a17.578667 17.578667 0 0 0-17.692445 12.435912 17.339733 17.339733 0 0 0 3.618134 17.749333l2.9696 2.730667L506.5728 721.92c3.254044 2.2528 7.133867 3.447467 11.104711 3.413333z"  horiz-adv-x="1024" />
      
      <glyph glyph-name="zhidian" unicode="&#58968;" d="M512 384m-460.8 0a460.8 460.8 0 1 1 921.6 0 460.8 460.8 0 1 1-921.6 0ZM512-93.866667c-263.509333 0-477.866667 214.357333-477.866667 477.866667s214.357333 477.866667 477.866667 477.866667 477.866667-214.357333 477.866667-477.866667-214.357333-477.866667-477.866667-477.866667z m0 921.6c-244.667733 0-443.733333-199.0656-443.733333-443.733333s199.0656-443.733333 443.733333-443.733333 443.733333 199.0656 443.733333 443.733333-199.0656 443.733333-443.733333 443.733333zM753.698133 187.426133c19.899733 34.645333 8.874667 61.269333-26.385066 87.893334-41.437867 31.300267-81.954133 52.360533-111.069867 18.6368 0 0-30.9248-36.795733-121.890133 49.322666-105.7792 100.829867-61.371733 136.6016-61.371734 136.6016 36.795733 37.000533 13.4144 64.580267-17.442133 106.359467-30.856533 41.7792-62.020267 55.022933-106.769067 19.080533-86.2208-69.256533 35.362133-231.867733 96.836267-295.1168 0 0 93.457067-96.6656 152.302933-128.853333l31.470934-17.578667c45.124267-23.1424 95.812267-33.757867 131.515733-12.253866-0.034133-0.068267 17.169067 8.772267 32.802133 35.908266z"  horiz-adv-x="1024" />
      
      </font>
</defs>
</svg>
